<svg xmlns="http://www.w3.org/2000/svg" xmlns:xlink="http://www.w3.org/1999/xlink" width="40" height="40" viewBox="0 0 40 40">
  <defs>
    <clipPath id="clip-path">
      <rect id="사각형_145" data-name="사각형 145" width="40" height="40" transform="translate(1558 54)" fill="red"/>
    </clipPath>
  </defs>
  <g id="cart_icon" transform="translate(-1558 -54)" clip-path="url(#clip-path)">
    <g id="lnr-cart" transform="translate(1557.057 49.556)">
      <path id="패스_143" data-name="패스 143" d="M17.778,44.444A4.444,4.444,0,1,1,22.222,40,4.449,4.449,0,0,1,17.778,44.444Zm0-6.667A2.222,2.222,0,1,0,20,40,2.226,2.226,0,0,0,17.778,37.778Z"/>
      <path id="패스_144" data-name="패스 144" d="M33.333,44.444A4.444,4.444,0,1,1,37.778,40,4.449,4.449,0,0,1,33.333,44.444Zm0-6.667A2.222,2.222,0,1,0,35.556,40,2.226,2.226,0,0,0,33.333,37.778Z"/>
      <path id="패스_145" data-name="패스 145" d="M38.976,9.927a3,3,0,0,0-2.309-1.038H9.46L9.24,7.564a3.817,3.817,0,0,0-3.684-3.12H3.333a1.111,1.111,0,0,0,0,2.222H5.556A1.609,1.609,0,0,1,7.047,7.931L10.76,30.213a3.817,3.817,0,0,0,3.684,3.12H36.667a1.111,1.111,0,1,0,0-2.222H14.444a1.609,1.609,0,0,1-1.491-1.264L12.4,26.558l22.144-1.927a4.134,4.134,0,0,0,3.58-3.309l1.491-8.949a3.009,3.009,0,0,0-.642-2.449Zm-1.549,2.082-1.491,8.949a1.931,1.931,0,0,1-1.58,1.46l-22.318,1.94L9.829,11.109H36.664a.777.777,0,0,1,.613.251.789.789,0,0,1,.147.647Z"/>
    </g>
  </g>
</svg>
