<svg xmlns="http://www.w3.org/2000/svg" width="203.5" height="50.021" viewBox="0 0 203.5 50.021">
  <g id="foot_logo" transform="translate(0.006 0.512)">
    <path id="패스_1" data-name="패스 1" d="M52.769,16.422c4.382,4.305-9.842,10.64-14.112,11.634-3.948.77-19.565,3.759-20.118-19.992-.084-3.6,1.939-9.849,10.493-7.581C35.213,2.4,29.6,18.984,39.14,20.2c6.426.819,10.332-7.028,13.636-3.78Z" transform="translate(-5.563)" fill="#dcdcdc" stroke="#dcdcdc" stroke-width="1" opacity="0.8"/>
    <path id="패스_2" data-name="패스 2" d="M51.727,46.431c4.781-5.012-9.478-10.969-13.706-12.11-3.913-.9-19.425-4.431-20.8,19.285-.2,3.6,1.6,9.912,10.227,7.938,6.244-1.708-4-20.853,5.565-21.742,6.447-.6,13.538,12.047,18.711,6.629Z" transform="translate(-5.164 -12.919)" fill="#dcdcdc" stroke="#dcdcdc" stroke-width="1" opacity="0.8"/>
    <g id="그룹_1" data-name="그룹 1" transform="translate(-0.006 9.685)" opacity="0.8">
      <path id="패스_3" data-name="패스 3" d="M2.161,43.907c6.9,7.252,14.07-5.621,16.128-7.959,1.526-3.164,4.683-7.889-5.124-18.515C11.114,15.207,5.059,14.8,3.6,20.716c-.854,4.375,15.12,4.172,12.5,10.262C14.32,35.08-6.68,34.611,2.154,43.9Z" transform="translate(0.006 -15.923)" fill="#dcdcdc"/>
    </g>
    <path id="패스_4" data-name="패스 4" d="M82.746,29.265c0,.693.021,1.372.063,2.023a5.543,5.543,0,0,0,.371,1.75,2.667,2.667,0,0,0,.994,1.225,3.4,3.4,0,0,0,1.925.469,3.643,3.643,0,0,0,2-.469,2.749,2.749,0,0,0,1.043-1.19,4.611,4.611,0,0,0,.392-1.61q.063-.882.063-1.722V19.57h1.869V29.762a16.328,16.328,0,0,1-.182,2.429,5.636,5.636,0,0,1-.77,2.149,4.3,4.3,0,0,1-1.7,1.526,6.57,6.57,0,0,1-3,.574,7.014,7.014,0,0,1-2.464-.378A3.91,3.91,0,0,1,81.7,34.956a4.446,4.446,0,0,1-.91-1.806,9.663,9.663,0,0,1-.28-2.464V21.67a3.508,3.508,0,0,0-.2-1.239,1.815,1.815,0,0,0-.7-.861h2.31a.845.845,0,0,1,.616.238,1.04,1.04,0,0,1,.231.735v8.729Z" transform="translate(-24.285 -6.983)" fill="#dcdcdc" stroke="#dcdcdc" stroke-width="1"/>
    <path id="패스_5" data-name="패스 5" d="M82.746,29.265c0,.693.021,1.372.063,2.023a5.543,5.543,0,0,0,.371,1.75,2.667,2.667,0,0,0,.994,1.225,3.4,3.4,0,0,0,1.925.469,3.643,3.643,0,0,0,2-.469,2.749,2.749,0,0,0,1.043-1.19,4.611,4.611,0,0,0,.392-1.61q.063-.882.063-1.722V19.57h1.869V29.762a16.328,16.328,0,0,1-.182,2.429,5.636,5.636,0,0,1-.77,2.149,4.3,4.3,0,0,1-1.7,1.526,6.57,6.57,0,0,1-3,.574,7.014,7.014,0,0,1-2.464-.378A3.91,3.91,0,0,1,81.7,34.956a4.446,4.446,0,0,1-.91-1.806,9.663,9.663,0,0,1-.28-2.464V21.67a3.508,3.508,0,0,0-.2-1.239,1.815,1.815,0,0,0-.7-.861h2.31a.845.845,0,0,1,.616.238,1.04,1.04,0,0,1,.231.735v8.729Z" transform="translate(-24.285 -6.983)" fill="#dcdcdc" stroke="#dcdcdc" stroke-width="0.25"/>
    <path id="패스_6" data-name="패스 6" d="M107.7,19.56a.8.8,0,0,1,.6.238,1.073,1.073,0,0,1,.224.735V33.357c0,.5.077.819.231.952a1.511,1.511,0,0,0,.931.2h5.782v1.659H106.3V21.6a3.215,3.215,0,0,0-.2-1.148,1.8,1.8,0,0,0-.714-.882h2.31Z" transform="translate(-32.144 -6.971)" fill="#dcdcdc" stroke="#dcdcdc" stroke-width="1"/>
    <path id="패스_7" data-name="패스 7" d="M107.7,19.56a.8.8,0,0,1,.6.238,1.073,1.073,0,0,1,.224.735V33.357c0,.5.077.819.231.952a1.511,1.511,0,0,0,.931.2h5.782v1.659H106.3V21.6a3.215,3.215,0,0,0-.2-1.148,1.8,1.8,0,0,0-.714-.882h2.31Z" transform="translate(-32.144 -6.971)" fill="#dcdcdc" stroke="#dcdcdc" stroke-width="0.25"/>
    <path id="패스_8" data-name="패스 8" d="M139.177,23.213c-.28.014-.567.042-.861.063s-.581.049-.868.049a1.049,1.049,0,0,1-.539-.168.921.921,0,0,1-.385-.63,3.023,3.023,0,0,0-.252-.6,1.713,1.713,0,0,0-.483-.553,2.655,2.655,0,0,0-.77-.4,3.429,3.429,0,0,0-1.106-.154,2.722,2.722,0,0,0-1.827.63,4.726,4.726,0,0,0-1.2,1.582,8.068,8.068,0,0,0-.672,2.058,11.1,11.1,0,0,0-.21,2.058c0,.455.021.966.063,1.512a12.4,12.4,0,0,0,.238,1.666,9.652,9.652,0,0,0,.511,1.638,5.2,5.2,0,0,0,.861,1.407,3.994,3.994,0,0,0,1.3.973,4.138,4.138,0,0,0,1.806.364A5.97,5.97,0,0,0,136.9,34.3a9.748,9.748,0,0,0,2.009-.98c.028.322.049.644.084.959s.056.637.084.959a7.906,7.906,0,0,1-1.085.406c-.413.126-.847.238-1.295.336s-.9.168-1.358.224a11.746,11.746,0,0,1-1.246.077,6.459,6.459,0,0,1-2.856-.588A5.242,5.242,0,0,1,129.223,34a7.771,7.771,0,0,1-1.2-2.709,15.168,15.168,0,0,1-.4-3.654,14.464,14.464,0,0,1,.343-3.22,7.807,7.807,0,0,1,1.106-2.653,5.583,5.583,0,0,1,1.988-1.8,6.225,6.225,0,0,1,2.989-.665,7.187,7.187,0,0,1,2.205.294,4.268,4.268,0,0,1,1.505.833,3.665,3.665,0,0,1,.938,1.253,6.435,6.435,0,0,1,.49,1.533" transform="translate(-38.928 -6.89)" fill="#dcdcdc" stroke="#dcdcdc" stroke-width="1"/>
    <path id="패스_9" data-name="패스 9" d="M139.177,23.213c-.28.014-.567.042-.861.063s-.581.049-.868.049a1.049,1.049,0,0,1-.539-.168.921.921,0,0,1-.385-.63,3.023,3.023,0,0,0-.252-.6,1.713,1.713,0,0,0-.483-.553,2.655,2.655,0,0,0-.77-.4,3.429,3.429,0,0,0-1.106-.154,2.722,2.722,0,0,0-1.827.63,4.726,4.726,0,0,0-1.2,1.582,8.068,8.068,0,0,0-.672,2.058,11.1,11.1,0,0,0-.21,2.058c0,.455.021.966.063,1.512a12.4,12.4,0,0,0,.238,1.666,9.652,9.652,0,0,0,.511,1.638,5.2,5.2,0,0,0,.861,1.407,3.994,3.994,0,0,0,1.3.973,4.138,4.138,0,0,0,1.806.364A5.97,5.97,0,0,0,136.9,34.3a9.748,9.748,0,0,0,2.009-.98c.028.322.049.644.084.959s.056.637.084.959a7.906,7.906,0,0,1-1.085.406c-.413.126-.847.238-1.295.336s-.9.168-1.358.224a11.746,11.746,0,0,1-1.246.077,6.459,6.459,0,0,1-2.856-.588A5.242,5.242,0,0,1,129.223,34a7.771,7.771,0,0,1-1.2-2.709,15.168,15.168,0,0,1-.4-3.654,14.464,14.464,0,0,1,.343-3.22,7.807,7.807,0,0,1,1.106-2.653,5.583,5.583,0,0,1,1.988-1.8,6.225,6.225,0,0,1,2.989-.665,7.187,7.187,0,0,1,2.205.294,4.268,4.268,0,0,1,1.505.833,3.665,3.665,0,0,1,.938,1.253,6.435,6.435,0,0,1,.49,1.533Z" transform="translate(-38.928 -6.89)" fill="#dcdcdc" stroke="#dcdcdc" stroke-width="0.25"/>
    <path id="패스_10" data-name="패스 10" d="M151.671,19.56a.845.845,0,0,1,.616.238,1.04,1.04,0,0,1,.231.735v6.125h6.622v-7.1h2.212V36.185H159.14V28.317h-6.622v7.868h-2.205V21.66a3.509,3.509,0,0,0-.2-1.239,1.716,1.716,0,0,0-.7-.861h2.268Z" transform="translate(-45.576 -6.972)" fill="#dcdcdc" stroke="#dcdcdc" stroke-width="1"/>
    <path id="패스_11" data-name="패스 11" d="M151.671,19.56a.845.845,0,0,1,.616.238,1.04,1.04,0,0,1,.231.735v6.125h6.622v-7.1h2.212V36.185H159.14V28.317h-6.622v7.868h-2.205V21.66a3.509,3.509,0,0,0-.2-1.239,1.716,1.716,0,0,0-.7-.861h2.268Z" transform="translate(-45.576 -6.972)" fill="#dcdcdc" stroke="#dcdcdc" stroke-width="0.25"/>
    <path id="패스_12" data-name="패스 12" d="M183.015,19.56v1.729H177.6a4.344,4.344,0,0,0-.56.021.734.734,0,0,0-.343.112.488.488,0,0,0-.168.266,1.8,1.8,0,0,0-.049.483v4.487h5.9v1.659h-5.9v5.215q0,.662.231.819a1.756,1.756,0,0,0,.9.154h5.782v1.659h-9.093V21.6a3.376,3.376,0,0,0-.189-1.148,1.8,1.8,0,0,0-.714-.882h9.639Z" transform="translate(-52.882 -6.971)" fill="#dcdcdc" stroke="#dcdcdc" stroke-width="1"/>
    <path id="패스_13" data-name="패스 13" d="M183.015,19.56v1.729H177.6a4.344,4.344,0,0,0-.56.021.734.734,0,0,0-.343.112.488.488,0,0,0-.168.266,1.8,1.8,0,0,0-.049.483v4.487h5.9v1.659h-5.9v5.215q0,.662.231.819a1.756,1.756,0,0,0,.9.154h5.782v1.659h-9.093V21.6a3.376,3.376,0,0,0-.189-1.148,1.8,1.8,0,0,0-.714-.882h9.639Z" transform="translate(-52.882 -6.971)" fill="#dcdcdc" stroke="#dcdcdc" stroke-width="0.25"/>
    <path id="패스_14" data-name="패스 14" d="M196.018,36.151h-1.785v-14.5a3.536,3.536,0,0,0-.2-1.239,1.752,1.752,0,0,0-.7-.861h2.429a1.141,1.141,0,0,1,.763.287,1.914,1.914,0,0,1,.525.791q1.081,3.014,2.177,5.95T201.4,32.5c.819-2.17,1.631-4.319,2.443-6.468s1.617-4.305,2.436-6.489h2.59v16.6h-2.065c0-2.212,0-4.41-.014-6.6s-.007-4.389-.007-6.6q-1.229,3.318-2.429,6.6t-2.429,6.6H200.5q-1.124-3.14-2.24-6.237t-2.24-6.237V36.13Z" transform="translate(-58.992 -6.964)" fill="#dcdcdc" stroke="#dcdcdc" stroke-width="1"/>
    <path id="패스_15" data-name="패스 15" d="M196.018,36.151h-1.785v-14.5a3.536,3.536,0,0,0-.2-1.239,1.752,1.752,0,0,0-.7-.861h2.429a1.141,1.141,0,0,1,.763.287,1.914,1.914,0,0,1,.525.791q1.081,3.014,2.177,5.95T201.4,32.5c.819-2.17,1.631-4.319,2.443-6.468s1.617-4.305,2.436-6.489h2.59v16.6h-2.065c0-2.212,0-4.41-.014-6.6s-.007-4.389-.007-6.6q-1.229,3.318-2.429,6.6t-2.429,6.6H200.5q-1.124-3.14-2.24-6.237t-2.24-6.237V36.13Z" transform="translate(-58.992 -6.964)" fill="#dcdcdc" stroke="#dcdcdc" stroke-width="0.25"/>
    <path id="패스_16" data-name="패스 16" d="M225.518,36.154h-2.226V21.65a3.717,3.717,0,0,0-.189-1.239,1.667,1.667,0,0,0-.693-.861H224.7a.78.78,0,0,1,.6.245,1.053,1.053,0,0,1,.217.728V36.154Z" transform="translate(-67.794 -6.968)" fill="#dcdcdc" stroke="#dcdcdc" stroke-width="1"/>
    <path id="패스_17" data-name="패스 17" d="M225.518,36.154h-2.226V21.65a3.717,3.717,0,0,0-.189-1.239,1.667,1.667,0,0,0-.693-.861H224.7a.78.78,0,0,1,.6.245,1.053,1.053,0,0,1,.217.728V36.154Z" transform="translate(-67.794 -6.968)" fill="#dcdcdc" stroke="#dcdcdc" stroke-width="0.25"/>
    <path id="패스_18" data-name="패스 18" d="M245.407,23.213c-.28.014-.567.042-.861.063s-.581.049-.861.049a1.049,1.049,0,0,1-.539-.168.921.921,0,0,1-.385-.63,3.023,3.023,0,0,0-.252-.6,1.713,1.713,0,0,0-.483-.553,2.748,2.748,0,0,0-.77-.4,3.429,3.429,0,0,0-1.106-.154,2.722,2.722,0,0,0-1.827.63,4.725,4.725,0,0,0-1.2,1.582,8.068,8.068,0,0,0-.672,2.058,11.1,11.1,0,0,0-.21,2.058c0,.455.021.966.063,1.512a12.4,12.4,0,0,0,.238,1.666,9.06,9.06,0,0,0,.511,1.638,5.379,5.379,0,0,0,.861,1.407,3.921,3.921,0,0,0,1.3.973,4.138,4.138,0,0,0,1.806.364,5.97,5.97,0,0,0,2.128-.413,9.748,9.748,0,0,0,2.009-.98c.028.322.049.644.077.959s.056.637.084.959a7.907,7.907,0,0,1-1.085.406c-.413.126-.847.238-1.3.336s-.9.168-1.351.224a11.745,11.745,0,0,1-1.246.077,6.459,6.459,0,0,1-2.856-.588A5.242,5.242,0,0,1,235.46,34a7.645,7.645,0,0,1-1.2-2.709,15.149,15.149,0,0,1-.406-3.654,14.464,14.464,0,0,1,.343-3.22,7.807,7.807,0,0,1,1.106-2.653,5.469,5.469,0,0,1,1.988-1.8,6.225,6.225,0,0,1,2.989-.665,7.187,7.187,0,0,1,2.205.294,4.268,4.268,0,0,1,1.505.833,3.665,3.665,0,0,1,.938,1.253,6.435,6.435,0,0,1,.49,1.533" transform="translate(-71.54 -6.89)" fill="#dcdcdc" stroke="#dcdcdc" stroke-width="1"/>
    <path id="패스_19" data-name="패스 19" d="M245.407,23.213c-.28.014-.567.042-.861.063s-.581.049-.861.049a1.049,1.049,0,0,1-.539-.168.921.921,0,0,1-.385-.63,3.023,3.023,0,0,0-.252-.6,1.713,1.713,0,0,0-.483-.553,2.748,2.748,0,0,0-.77-.4,3.429,3.429,0,0,0-1.106-.154,2.722,2.722,0,0,0-1.827.63,4.725,4.725,0,0,0-1.2,1.582,8.068,8.068,0,0,0-.672,2.058,11.1,11.1,0,0,0-.21,2.058c0,.455.021.966.063,1.512a12.4,12.4,0,0,0,.238,1.666,9.06,9.06,0,0,0,.511,1.638,5.379,5.379,0,0,0,.861,1.407,3.921,3.921,0,0,0,1.3.973,4.138,4.138,0,0,0,1.806.364,5.97,5.97,0,0,0,2.128-.413,9.748,9.748,0,0,0,2.009-.98c.028.322.049.644.077.959s.056.637.084.959a7.907,7.907,0,0,1-1.085.406c-.413.126-.847.238-1.3.336s-.9.168-1.351.224a11.745,11.745,0,0,1-1.246.077,6.459,6.459,0,0,1-2.856-.588A5.242,5.242,0,0,1,235.46,34a7.645,7.645,0,0,1-1.2-2.709,15.149,15.149,0,0,1-.406-3.654,14.464,14.464,0,0,1,.343-3.22,7.807,7.807,0,0,1,1.106-2.653,5.469,5.469,0,0,1,1.988-1.8,6.225,6.225,0,0,1,2.989-.665,7.187,7.187,0,0,1,2.205.294,4.268,4.268,0,0,1,1.505.833,3.665,3.665,0,0,1,.938,1.253,6.435,6.435,0,0,1,.49,1.533Z" transform="translate(-71.54 -6.89)" fill="#dcdcdc" stroke="#dcdcdc" stroke-width="0.25"/>
    <path id="패스_20" data-name="패스 20" d="M259.437,21.028a2.762,2.762,0,0,0-.112-.805,1.364,1.364,0,0,0-.511-.693h1.9a1.141,1.141,0,0,1,.826.273,2.487,2.487,0,0,1,.5.805l5.362,15.519h-2.352c-.294-.854-.581-1.715-.861-2.569s-.567-1.715-.861-2.59h-5.3l-1.75,5.173H254.46q1.166-3.423,2.317-6.818t2.317-6.818c.091-.28.175-.56.238-.833a2.707,2.707,0,0,0,.1-.651m3.311,8.225c-.35-1.05-.693-2.086-1.036-3.115s-.686-2.079-1.036-3.136c-.35,1.064-.686,2.107-1.022,3.136s-.679,2.072-1.022,3.115Z" transform="translate(-77.723 -6.961)" fill="#dcdcdc" stroke="#dcdcdc" stroke-width="1"/>
    <path id="패스_21" data-name="패스 21" d="M259.437,21.028a2.762,2.762,0,0,0-.112-.805,1.364,1.364,0,0,0-.511-.693h1.9a1.141,1.141,0,0,1,.826.273,2.487,2.487,0,0,1,.5.805l5.362,15.519h-2.352c-.294-.854-.581-1.715-.861-2.569s-.567-1.715-.861-2.59h-5.3l-1.75,5.173H254.46q1.166-3.423,2.317-6.818t2.317-6.818c.091-.28.175-.56.238-.833a2.707,2.707,0,0,0,.1-.651Zm3.311,8.225c-.35-1.05-.693-2.086-1.036-3.115s-.686-2.079-1.036-3.136c-.35,1.064-.686,2.107-1.022,3.136s-.679,2.072-1.022,3.115Z" transform="translate(-77.723 -6.961)" fill="#dcdcdc" stroke="#dcdcdc" stroke-width="0.25"/>
    <path id="패스_22" data-name="패스 22" d="M279.88,19.56a.8.8,0,0,1,.6.238,1.073,1.073,0,0,1,.224.735V33.357c0,.5.077.819.231.952a1.511,1.511,0,0,0,.931.2h5.782v1.659h-9.17V21.6a3.214,3.214,0,0,0-.2-1.148,1.8,1.8,0,0,0-.714-.882h2.31Z" transform="translate(-84.656 -6.971)" fill="#dcdcdc" stroke="#dcdcdc" stroke-width="1"/>
    <path id="패스_23" data-name="패스 23" d="M279.88,19.56a.8.8,0,0,1,.6.238,1.073,1.073,0,0,1,.224.735V33.357c0,.5.077.819.231.952a1.511,1.511,0,0,0,.931.2h5.782v1.659h-9.17V21.6a3.214,3.214,0,0,0-.2-1.148,1.8,1.8,0,0,0-.714-.882h2.31Z" transform="translate(-84.656 -6.971)" fill="#dcdcdc" stroke="#dcdcdc" stroke-width="0.25"/>
    <path id="패스_24" data-name="패스 24" d="M127.307,50.5c0,.168.007.336.021.5a1.055,1.055,0,0,0,.133.427.754.754,0,0,0,.329.294,1.421,1.421,0,0,0,.63.1,1.4,1.4,0,0,0,.63-.119.848.848,0,0,0,.336-.308.955.955,0,0,0,.126-.4c.014-.147.028-.28.028-.413v-2.3h.42v2.331a2.9,2.9,0,0,1-.056.553,1.044,1.044,0,0,1-.231.476,1.139,1.139,0,0,1-.49.343,2.364,2.364,0,0,1-.854.126,2.468,2.468,0,0,1-.693-.084,1.2,1.2,0,0,1-.462-.238.921.921,0,0,1-.259-.406,1.677,1.677,0,0,1-.077-.553V48.7a.612.612,0,0,0-.056-.259.37.37,0,0,0-.182-.175h.5a.238.238,0,0,1,.154.042.171.171,0,0,1,.049.14v2.03Z" transform="translate(-38.591 -16.479)" fill="#dcdcdc" stroke="#dcdcdc" stroke-width="1"/>
    <path id="패스_25" data-name="패스 25" d="M135.165,52.513h-.42V51.036a2.215,2.215,0,0,0-.035-.413.612.612,0,0,0-.119-.273.493.493,0,0,0-.217-.154.988.988,0,0,0-.343-.049.72.72,0,0,0-.259.056,1.078,1.078,0,0,0-.273.154,1.167,1.167,0,0,0-.238.252,1.182,1.182,0,0,0-.175.336v1.568h-.448V50.224a.612.612,0,0,0-.056-.259.44.44,0,0,0-.182-.175h.483a.238.238,0,0,1,.154.042.2.2,0,0,1,.049.14v.413a1.381,1.381,0,0,1,.511-.441,1.249,1.249,0,0,1,.574-.147,1.366,1.366,0,0,1,.378.049.8.8,0,0,1,.322.175.913.913,0,0,1,.224.322,1.256,1.256,0,0,1,.084.49V52.5Z" transform="translate(-40.357 -16.951)" fill="#dcdcdc" stroke="#dcdcdc" stroke-width="1"/>
    <path id="패스_26" data-name="패스 26" d="M138.176,52.009h-.448V48.544a.589.589,0,0,0-.056-.259.4.4,0,0,0-.182-.175h.483a.238.238,0,0,1,.154.042.162.162,0,0,1,.049.14V52Z" transform="translate(-41.902 -16.427)" fill="#dcdcdc" stroke="#dcdcdc" stroke-width="1"/>
    <path id="패스_27" data-name="패스 27" d="M140.666,52.04h-.448v-2.3a.523.523,0,0,0-.056-.259.4.4,0,0,0-.182-.175h.483a.238.238,0,0,1,.154.042.178.178,0,0,1,.049.147V52.04Zm.056-3.556a.251.251,0,0,1-.112.217.385.385,0,0,1-.245.084.366.366,0,0,1-.238-.084.256.256,0,0,1-.1-.217.253.253,0,0,1,.1-.21.372.372,0,0,1,.245-.084.353.353,0,0,1,.238.084.266.266,0,0,1,.112.21" transform="translate(-42.661 -16.452)" fill="#dcdcdc" stroke="#dcdcdc" stroke-width="1"/>
    <path id="패스_28" data-name="패스 28" d="M142.956,50.361a1.28,1.28,0,0,1,.434-.434,1.124,1.124,0,0,1,.525-.133.912.912,0,0,1,.525.154.833.833,0,0,1,.315.462,1.26,1.26,0,0,1,.462-.476,1.116,1.116,0,0,1,.56-.147.949.949,0,0,1,.5.119,1.032,1.032,0,0,1,.308.294.974.974,0,0,1,.147.364,1.57,1.57,0,0,1,.042.336v1.6h-.455V50.984a1.387,1.387,0,0,0-.021-.294.708.708,0,0,0-.1-.273.625.625,0,0,0-.2-.2.691.691,0,0,0-.343-.077.552.552,0,0,0-.322.1,1.171,1.171,0,0,0-.259.266,1.323,1.323,0,0,0-.175.343,1.072,1.072,0,0,0-.056.35v1.3h-.434V51.075a1.96,1.96,0,0,0-.021-.357,1,1,0,0,0-.084-.3.48.48,0,0,0-.189-.2.6.6,0,0,0-.336-.077.682.682,0,0,0-.469.21,1.343,1.343,0,0,0-.35.581V52.5h-.448V50.207a.58.58,0,0,0-.056-.252.4.4,0,0,0-.182-.175h.476a.238.238,0,0,1,.154.042.178.178,0,0,1,.049.147v.385Z" transform="translate(-43.372 -16.948)" fill="#dcdcdc" stroke="#dcdcdc" stroke-width="1"/>
    <path id="패스_29" data-name="패스 29" d="M150.586,52.04h-.448v-2.3a.523.523,0,0,0-.056-.259.4.4,0,0,0-.182-.175h.483a.238.238,0,0,1,.154.042.2.2,0,0,1,.049.147V52.04Zm.056-3.556a.251.251,0,0,1-.112.217.385.385,0,0,1-.245.084.366.366,0,0,1-.238-.084.276.276,0,0,1-.1-.217.253.253,0,0,1,.1-.21.372.372,0,0,1,.245-.084.353.353,0,0,1,.238.084.259.259,0,0,1,.1.21" transform="translate(-45.684 -16.452)" fill="#dcdcdc" stroke="#dcdcdc" stroke-width="1"/>
    <path id="패스_30" data-name="패스 30" d="M154.1,49.828h-.945V51.3c0,.119,0,.224.007.3a.29.29,0,0,0,.063.189.273.273,0,0,0,.189.1,1.692,1.692,0,0,0,.371.028h.126a.277.277,0,0,0,.1-.014v.273c-.056.014-.126.021-.224.035a1.371,1.371,0,0,1-.217.014,2.12,2.12,0,0,1-.378-.021.734.734,0,0,1-.287-.1.473.473,0,0,1-.175-.21.907.907,0,0,1-.063-.371V49.828h-.637v-.287h.637v-.4a.47.47,0,0,1,.021-.126.182.182,0,0,1,.1-.112c.063-.028.119-.049.168-.077s.112-.049.175-.077v.8h.945v.287Z" transform="translate(-46.338 -16.628)" fill="#dcdcdc" stroke="#dcdcdc" stroke-width="1"/>
    <path id="패스_31" data-name="패스 31" d="M156.179,50.965a1.477,1.477,0,0,0,.049.511.851.851,0,0,0,.224.385,1.056,1.056,0,0,0,.427.245,2.3,2.3,0,0,0,.679.084,1.694,1.694,0,0,0,.266-.014,1.377,1.377,0,0,0,.245-.042v.252a3.115,3.115,0,0,1-.434.1,3.569,3.569,0,0,1-.4.028,1.62,1.62,0,0,1-1.127-.371,1.359,1.359,0,0,1-.4-1.071,1.554,1.554,0,0,1,.091-.553,1.231,1.231,0,0,1,.266-.42,1.106,1.106,0,0,1,.413-.266,1.477,1.477,0,0,1,.539-.091,1.209,1.209,0,0,1,.581.126,1.169,1.169,0,0,1,.371.315,1.345,1.345,0,0,1,.2.4,1.679,1.679,0,0,1,.07.378h-2.072ZM157.8,50.7a1.1,1.1,0,0,0-.056-.231.614.614,0,0,0-.133-.224.637.637,0,0,0-.231-.168.793.793,0,0,0-.357-.07.907.907,0,0,0-.343.063.785.785,0,0,0-.245.161.871.871,0,0,0-.161.224.884.884,0,0,0-.084.238h1.6Z" transform="translate(-47.461 -16.936)" fill="#dcdcdc" stroke="#dcdcdc" stroke-width="1"/>
    <path id="패스_32" data-name="패스 32" d="M162.162,48.564a.636.636,0,0,0-.056-.259.37.37,0,0,0-.182-.175h.476a.226.226,0,0,1,.147.056.15.15,0,0,1,.063.126v3.7h-.49v-.343a.883.883,0,0,1-.175.133,2.15,2.15,0,0,1-.217.119,1.444,1.444,0,0,1-.245.084,1.1,1.1,0,0,1-.259.035,1.324,1.324,0,0,1-.581-.112,1.14,1.14,0,0,1-.4-.294,1.113,1.113,0,0,1-.224-.434,1.781,1.781,0,0,1-.07-.518,1.659,1.659,0,0,1,.07-.49,1.345,1.345,0,0,1,.224-.434,1.189,1.189,0,0,1,.385-.308,1.208,1.208,0,0,1,.546-.119,1.674,1.674,0,0,1,.553.091.914.914,0,0,1,.252.147.864.864,0,0,1,.2.245V48.564Zm-.021,2.037a.982.982,0,0,0-.049-.287,1.1,1.1,0,0,0-.154-.315.838.838,0,0,0-.266-.252.689.689,0,0,0-.385-.1.806.806,0,0,0-.462.112.766.766,0,0,0-.273.266,1.014,1.014,0,0,0-.126.343,2.053,2.053,0,0,0-.028.343,1.523,1.523,0,0,0,.035.35.939.939,0,0,0,.133.336.791.791,0,0,0,.273.252.953.953,0,0,0,.455.1.745.745,0,0,0,.406-.1.877.877,0,0,0,.266-.266,1.184,1.184,0,0,0,.14-.322,1.231,1.231,0,0,0,.042-.287v-.168Z" transform="translate(-48.754 -16.434)" fill="#dcdcdc" stroke="#dcdcdc" stroke-width="1"/>
    <path id="패스_33" data-name="패스 33" d="M167.651,48.28a.238.238,0,0,1,.154.042.171.171,0,0,1,.049.14v3.073q0,.147.063.189a.511.511,0,0,0,.245.035H170v.294h-2.618V48.686a.505.505,0,0,0-.056-.224.4.4,0,0,0-.189-.182h.5Z" transform="translate(-50.947 -16.48)" fill="#dcdcdc" stroke="#dcdcdc" stroke-width="1"/>
    <path id="패스_34" data-name="패스 34" d="M174.223,52.482h-.441v-.434a.853.853,0,0,1-.2.224,1.255,1.255,0,0,1-.266.154,1.939,1.939,0,0,1-.287.084,1.291,1.291,0,0,1-.273.028,1.012,1.012,0,0,1-.329-.049,1.051,1.051,0,0,1-.266-.133.6.6,0,0,1-.182-.2.485.485,0,0,1-.063-.238.738.738,0,0,1,.175-.518,1.2,1.2,0,0,1,.448-.3,2.3,2.3,0,0,1,.6-.14c.217-.021.427-.035.637-.042V50.76a1.226,1.226,0,0,0-.028-.28.571.571,0,0,0-.091-.231.418.418,0,0,0-.175-.154.555.555,0,0,0-.28-.056,1.078,1.078,0,0,0-.441.084.342.342,0,0,0-.21.259c-.021.112-.077.175-.154.175H172a.944.944,0,0,1,.112-.294.97.97,0,0,1,.231-.252,1.206,1.206,0,0,1,.357-.168,1.751,1.751,0,0,1,.5-.063,1.358,1.358,0,0,1,.518.084.742.742,0,0,1,.469.546,1.818,1.818,0,0,1,.042.392v1.68Zm-.441-1.288a2.777,2.777,0,0,0-.392.021,2.451,2.451,0,0,0-.462.084,1.15,1.15,0,0,0-.385.175.385.385,0,0,0-.161.322c0,.287.189.434.574.434a.618.618,0,0,0,.315-.077,1.216,1.216,0,0,0,.259-.182.849.849,0,0,0,.175-.224.391.391,0,0,0,.07-.2v-.35Z" transform="translate(-52.401 -16.949)" fill="#dcdcdc" stroke="#dcdcdc" stroke-width="1"/>
    <path id="패스_35" data-name="패스 35" d="M176.583,48.127a.252.252,0,0,1,.154.049.159.159,0,0,1,.063.126V49.87a.953.953,0,0,1,.2-.259,1.343,1.343,0,0,1,.245-.161.921.921,0,0,1,.266-.091,1.206,1.206,0,0,1,.273-.028,1.218,1.218,0,0,1,.553.112,1.093,1.093,0,0,1,.378.308,1.33,1.33,0,0,1,.217.434,1.705,1.705,0,0,1,.07.5,1.4,1.4,0,0,1-.1.5,1.37,1.37,0,0,1-.28.427,1.363,1.363,0,0,1-.966.42,1.057,1.057,0,0,1-.455-.091,1.61,1.61,0,0,1-.364-.231l-.3.294h-.2V48.554a.612.612,0,0,0-.056-.259.4.4,0,0,0-.182-.175h.476Zm1.953,2.513a1.954,1.954,0,0,0-.035-.329.809.809,0,0,0-.427-.567.955.955,0,0,0-.469-.084.617.617,0,0,0-.322.1,1.224,1.224,0,0,0-.266.238,1.39,1.39,0,0,0-.175.315.963.963,0,0,0-.07.336V50.8a1.086,1.086,0,0,0,.077.413,1.018,1.018,0,0,0,.2.3.857.857,0,0,0,.266.182.7.7,0,0,0,.273.063.894.894,0,0,0,.392-.084.826.826,0,0,0,.294-.217,1.074,1.074,0,0,0,.2-.322,1.089,1.089,0,0,0,.07-.4v-.091Z" transform="translate(-53.678 -16.431)" fill="#dcdcdc" stroke="#dcdcdc" stroke-width="1"/>
    <path id="패스_36" data-name="패스 36" d="M183.5,51.074a1.812,1.812,0,0,1-.091.6,1.268,1.268,0,0,1-.266.462,1.254,1.254,0,0,1-.434.294,1.572,1.572,0,0,1-.588.1,1.4,1.4,0,0,1-.623-.119,1.2,1.2,0,0,1-.434-.322,1.413,1.413,0,0,1-.252-.462,1.793,1.793,0,0,1-.084-.553,1.419,1.419,0,0,1,.364-1.05,1.481,1.481,0,0,1,2.044.049,1.33,1.33,0,0,1,.273.448,1.608,1.608,0,0,1,.091.553m-.483,0a1.838,1.838,0,0,0-.042-.378,1.106,1.106,0,0,0-.147-.364.871.871,0,0,0-.28-.273.951.951,0,0,0-.882.007.747.747,0,0,0-.273.28,1.131,1.131,0,0,0-.14.371,2.441,2.441,0,0,0-.035.371,2.354,2.354,0,0,0,.035.357,1.642,1.642,0,0,0,.14.392.8.8,0,0,0,.273.3.753.753,0,0,0,.448.126.779.779,0,0,0,.441-.112.8.8,0,0,0,.28-.273.983.983,0,0,0,.14-.378,2.068,2.068,0,0,0,.042-.413" transform="translate(-55.088 -16.913)" fill="#dcdcdc" stroke="#dcdcdc" stroke-width="1"/>
    <path id="패스_37" data-name="패스 37" d="M186.882,50.147a.986.986,0,0,0-.245.035.7.7,0,0,0-.231.112.832.832,0,0,0-.2.21,1.145,1.145,0,0,0-.147.322v1.687h-.448V50.224a.523.523,0,0,0-.056-.259.4.4,0,0,0-.182-.175h.483a.238.238,0,0,1,.154.042.187.187,0,0,1,.049.147v.3a1.186,1.186,0,0,1,.434-.371,1.3,1.3,0,0,1,.518-.112,1.244,1.244,0,0,1,.217.014,1.087,1.087,0,0,1,.2.035v.413a.562.562,0,0,0-.217-.084,1.454,1.454,0,0,0-.336-.035" transform="translate(-56.5 -16.951)" fill="#dcdcdc" stroke="#dcdcdc" stroke-width="1"/>
    <path id="패스_38" data-name="패스 38" d="M191.249,52.482h-.441v-.434a.852.852,0,0,1-.2.224,1.4,1.4,0,0,1-.259.154,1.938,1.938,0,0,1-.287.084,1.275,1.275,0,0,1-.266.028.942.942,0,0,1-.322-.049,1.051,1.051,0,0,1-.266-.133.537.537,0,0,1-.182-.2.428.428,0,0,1-.07-.238.772.772,0,0,1,.175-.518,1.2,1.2,0,0,1,.448-.3,2.3,2.3,0,0,1,.6-.14c.217-.021.427-.035.637-.042V50.76a.93.93,0,0,0-.028-.28.571.571,0,0,0-.091-.231.418.418,0,0,0-.175-.154.572.572,0,0,0-.28-.056,1.078,1.078,0,0,0-.441.084.342.342,0,0,0-.21.259c-.021.112-.077.175-.154.175h-.406a.8.8,0,0,1,.112-.294.97.97,0,0,1,.231-.252,1.206,1.206,0,0,1,.357-.168,1.768,1.768,0,0,1,.5-.063,1.358,1.358,0,0,1,.518.084.742.742,0,0,1,.469.546,1.819,1.819,0,0,1,.042.392v1.68Zm-.441-1.288a2.828,2.828,0,0,0-.392.021,2.451,2.451,0,0,0-.462.084,1.217,1.217,0,0,0-.385.175.385.385,0,0,0-.161.322c0,.287.189.434.574.434a.618.618,0,0,0,.315-.077,1.216,1.216,0,0,0,.259-.182,1.065,1.065,0,0,0,.182-.224.445.445,0,0,0,.063-.2v-.35Z" transform="translate(-57.595 -16.949)" fill="#dcdcdc" stroke="#dcdcdc" stroke-width="1"/>
    <path id="패스_39" data-name="패스 39" d="M195.038,49.828h-.945V51.3c0,.119,0,.224.007.3a.29.29,0,0,0,.063.189.273.273,0,0,0,.189.1,1.691,1.691,0,0,0,.371.028h.126a.277.277,0,0,0,.1-.014v.273c-.056.014-.126.021-.217.035a1.371,1.371,0,0,1-.217.014,2.12,2.12,0,0,1-.378-.021.734.734,0,0,1-.287-.1.473.473,0,0,1-.175-.21.908.908,0,0,1-.063-.371V49.828h-.637v-.287h.637v-.4a.3.3,0,0,1,.021-.126.182.182,0,0,1,.1-.112c.063-.028.119-.049.175-.077s.112-.049.175-.077v.8h.945v.287Z" transform="translate(-58.819 -16.628)" fill="#dcdcdc" stroke="#dcdcdc" stroke-width="1"/>
    <path id="패스_40" data-name="패스 40" d="M199.312,51.074a1.812,1.812,0,0,1-.091.6,1.376,1.376,0,0,1-.266.462,1.254,1.254,0,0,1-.434.294,1.524,1.524,0,0,1-.588.1,1.4,1.4,0,0,1-.623-.119,1.2,1.2,0,0,1-.434-.322,1.413,1.413,0,0,1-.252-.462,1.793,1.793,0,0,1-.084-.553,1.419,1.419,0,0,1,.364-1.05,1.481,1.481,0,0,1,2.044.049,1.33,1.33,0,0,1,.273.448,1.608,1.608,0,0,1,.091.553m-.483,0a1.837,1.837,0,0,0-.042-.378,1.268,1.268,0,0,0-.14-.364.871.871,0,0,0-.28-.273.84.84,0,0,0-.441-.1.8.8,0,0,0-.448.112.747.747,0,0,0-.273.28,1.312,1.312,0,0,0-.14.371,2.443,2.443,0,0,0-.035.371,2.356,2.356,0,0,0,.035.357,1.642,1.642,0,0,0,.14.392.939.939,0,0,0,.273.3.753.753,0,0,0,.448.126.779.779,0,0,0,.441-.112.8.8,0,0,0,.28-.273,1.111,1.111,0,0,0,.14-.378,2.067,2.067,0,0,0,.042-.413" transform="translate(-59.907 -16.913)" fill="#dcdcdc" stroke="#dcdcdc" stroke-width="1"/>
    <path id="패스_41" data-name="패스 41" d="M202.692,50.147a.986.986,0,0,0-.245.035.613.613,0,0,0-.224.112.972.972,0,0,0-.2.21,1.734,1.734,0,0,0-.154.322v1.687h-.448V50.224a.612.612,0,0,0-.056-.259.4.4,0,0,0-.182-.175h.483a.238.238,0,0,1,.154.042.187.187,0,0,1,.049.147v.3a1.186,1.186,0,0,1,.434-.371,1.354,1.354,0,0,1,.735-.1,1.087,1.087,0,0,1,.2.035v.413a.562.562,0,0,0-.217-.084,1.454,1.454,0,0,0-.336-.035" transform="translate(-61.318 -16.951)" fill="#dcdcdc" stroke="#dcdcdc" stroke-width="1"/>
    <path id="패스_42" data-name="패스 42" d="M207.667,49.8l-1.288,2.471a2.521,2.521,0,0,1-.2.35,1.933,1.933,0,0,1-.259.322,1.213,1.213,0,0,1-.329.231.936.936,0,0,1-.406.091,1.041,1.041,0,0,1-.413-.07.808.808,0,0,1-.28-.182.932.932,0,0,1-.175-.245.819.819,0,0,1-.084-.273h.525c.014.049.028.105.042.161a.412.412,0,0,0,.084.154.368.368,0,0,0,.14.112.505.505,0,0,0,.224.049.376.376,0,0,0,.189-.063.971.971,0,0,0,.2-.154,1.2,1.2,0,0,0,.182-.224,1.329,1.329,0,0,0,.14-.259l-1.2-2.1h0a.553.553,0,0,0-.133-.189.741.741,0,0,0-.231-.182h.518a.238.238,0,0,1,.154.042.4.4,0,0,1,.105.14l1.043,1.9,1.015-2.079Z" transform="translate(-62.255 -16.986)" fill="#dcdcdc" stroke="#dcdcdc" stroke-width="1"/>
    <path id="패스_43" data-name="패스 43" d="M214.76,49.076a.178.178,0,0,1-.119-.028.207.207,0,0,1-.077-.1.372.372,0,0,0-.084-.154.671.671,0,0,0-.168-.133.846.846,0,0,0-.266-.091,1.451,1.451,0,0,0-.371-.035,1.111,1.111,0,0,0-.588.147,1.329,1.329,0,0,0-.4.364,1.522,1.522,0,0,0-.224.483,1.81,1.81,0,0,0-.07.5,2.327,2.327,0,0,0,.021.371,2.029,2.029,0,0,0,.084.4,2.071,2.071,0,0,0,.168.385,1.23,1.23,0,0,0,.693.553,1.786,1.786,0,0,0,.581.084,2.7,2.7,0,0,0,.6-.07,3.149,3.149,0,0,0,.581-.182l.035.3a1.688,1.688,0,0,1-.315.091c-.119.028-.245.049-.371.07s-.252.035-.378.049-.245.014-.35.014a1.763,1.763,0,0,1-1.393-.511,2.063,2.063,0,0,1-.462-1.442,2.783,2.783,0,0,1,.1-.735,1.579,1.579,0,0,1,.322-.6,1.494,1.494,0,0,1,.567-.406,2.161,2.161,0,0,1,.847-.147,2.523,2.523,0,0,1,.6.063,1.459,1.459,0,0,1,.42.168.947.947,0,0,1,.273.252,1.1,1.1,0,0,1,.14.322l-.385.028Z" transform="translate(-64.589 -16.472)" fill="#dcdcdc" stroke="#dcdcdc" stroke-width="1"/>
    <path id="패스_44" data-name="패스 44" d="M218.029,50.006a1.383,1.383,0,0,1,.518-.5,1.529,1.529,0,0,1,.623-.133,1.131,1.131,0,0,1,.462.091.886.886,0,0,1,.308.238,1.053,1.053,0,0,1,.175.308,1.108,1.108,0,0,1,.056.308v1.694h-.441v-1.6a.979.979,0,0,0-.035-.238.623.623,0,0,0-.126-.231.7.7,0,0,0-.238-.175.836.836,0,0,0-.371-.07.663.663,0,0,0-.3.077.979.979,0,0,0-.28.21,1.318,1.318,0,0,0-.217.3,1.1,1.1,0,0,0-.126.336v1.393h-.448V48.564a.612.612,0,0,0-.056-.259.4.4,0,0,0-.182-.175h.476a.22.22,0,0,1,.147.049.159.159,0,0,1,.063.126v1.7Z" transform="translate(-66.251 -16.433)" fill="#dcdcdc" stroke="#dcdcdc" stroke-width="1"/>
    <path id="패스_45" data-name="패스 45" d="M222.829,50.965a1.477,1.477,0,0,0,.049.511.851.851,0,0,0,.224.385,1.011,1.011,0,0,0,.427.245,2.331,2.331,0,0,0,.679.084,1.694,1.694,0,0,0,.266-.014,1.377,1.377,0,0,0,.245-.042v.252a3.114,3.114,0,0,1-.434.1,3.568,3.568,0,0,1-.4.028,1.62,1.62,0,0,1-1.127-.371,1.384,1.384,0,0,1-.4-1.071,1.554,1.554,0,0,1,.091-.553,1.23,1.23,0,0,1,.266-.42,1.107,1.107,0,0,1,.413-.266,1.477,1.477,0,0,1,.539-.091,1.229,1.229,0,0,1,.581.126,1.143,1.143,0,0,1,.567.714,2.265,2.265,0,0,1,.077.378h-2.072Zm1.617-.266a1.1,1.1,0,0,0-.056-.231.73.73,0,0,0-.133-.224.637.637,0,0,0-.231-.168.793.793,0,0,0-.357-.07.907.907,0,0,0-.343.063.785.785,0,0,0-.245.161.731.731,0,0,0-.161.224.884.884,0,0,0-.084.238h1.6Z" transform="translate(-67.776 -16.936)" fill="#dcdcdc" stroke="#dcdcdc" stroke-width="1"/>
    <path id="패스_46" data-name="패스 46" d="M227.379,50.361a1.28,1.28,0,0,1,.434-.434,1.1,1.1,0,0,1,.525-.133.935.935,0,0,1,.532.154.833.833,0,0,1,.315.462,1.26,1.26,0,0,1,.462-.476,1.116,1.116,0,0,1,.56-.147.9.9,0,0,1,.8.413.974.974,0,0,1,.147.364,1.57,1.57,0,0,1,.042.336v1.6h-.448V50.984a2.075,2.075,0,0,0-.021-.294.708.708,0,0,0-.1-.273.564.564,0,0,0-.2-.2.72.72,0,0,0-.35-.077.537.537,0,0,0-.322.1,1.171,1.171,0,0,0-.259.266,1.323,1.323,0,0,0-.175.343,1.071,1.071,0,0,0-.056.35v1.3h-.434V51.075a1.96,1.96,0,0,0-.021-.357,1,1,0,0,0-.084-.3.528.528,0,0,0-.189-.2.584.584,0,0,0-.336-.077.682.682,0,0,0-.469.21,1.343,1.343,0,0,0-.35.581V52.5h-.448V50.207a.58.58,0,0,0-.056-.252.37.37,0,0,0-.182-.175h.476a.238.238,0,0,1,.154.042.178.178,0,0,1,.049.147v.385Z" transform="translate(-69.11 -16.948)" fill="#dcdcdc" stroke="#dcdcdc" stroke-width="1"/>
    <path id="패스_47" data-name="패스 47" d="M235,52.04h-.448v-2.3a.523.523,0,0,0-.056-.259.44.44,0,0,0-.182-.175h.483a.238.238,0,0,1,.154.042A.178.178,0,0,1,235,49.5V52.04Zm.056-3.556a.251.251,0,0,1-.112.217.385.385,0,0,1-.245.084.366.366,0,0,1-.238-.084.256.256,0,0,1-.1-.217.253.253,0,0,1,.1-.21.379.379,0,0,1,.476,0,.259.259,0,0,1,.1.21" transform="translate(-71.678 -16.452)" fill="#dcdcdc" stroke="#dcdcdc" stroke-width="1"/>
    <path id="패스_48" data-name="패스 48" d="M238.56,50.574a.139.139,0,0,1-.077-.021.16.16,0,0,1-.042-.1.451.451,0,0,0-.189-.3.786.786,0,0,0-.469-.112.716.716,0,0,0-.35.077.841.841,0,0,0-.266.2.961.961,0,0,0-.168.3,1.191,1.191,0,0,0-.056.357,1.585,1.585,0,0,0,.084.553,1.038,1.038,0,0,0,.245.385.978.978,0,0,0,.392.224,1.671,1.671,0,0,0,.511.07h.147a1.734,1.734,0,0,0,.189-.021c.063,0,.126-.021.2-.028s.119-.021.161-.035v.252a3.259,3.259,0,0,1-.455.091,4.015,4.015,0,0,1-.476.035,2,2,0,0,1-.6-.091,1.252,1.252,0,0,1-.462-.266,1.17,1.17,0,0,1-.308-.42,1.345,1.345,0,0,1-.112-.567,1.5,1.5,0,0,1,.091-.539,1.09,1.09,0,0,1,.259-.434,1.109,1.109,0,0,1,.427-.294,1.388,1.388,0,0,1,.581-.105,1.742,1.742,0,0,1,.448.056,1.4,1.4,0,0,1,.357.168.787.787,0,0,1,.245.259.754.754,0,0,1,.119.315h-.434Z" transform="translate(-72.323 -16.951)" fill="#dcdcdc" stroke="#dcdcdc" stroke-width="1"/>
    <path id="패스_49" data-name="패스 49" d="M243.113,52.482h-.441v-.434a.853.853,0,0,1-.2.224,1.255,1.255,0,0,1-.266.154,1.939,1.939,0,0,1-.287.084,1.291,1.291,0,0,1-.273.028.97.97,0,0,1-.322-.049,1.051,1.051,0,0,1-.266-.133.6.6,0,0,1-.182-.2.493.493,0,0,1-.07-.238.772.772,0,0,1,.175-.518,1.2,1.2,0,0,1,.448-.3,2.3,2.3,0,0,1,.6-.14q.325-.031.63-.042V50.76a.93.93,0,0,0-.028-.28.572.572,0,0,0-.091-.231.418.418,0,0,0-.175-.154.555.555,0,0,0-.28-.056,1.055,1.055,0,0,0-.441.084.342.342,0,0,0-.21.259c-.021.112-.077.175-.154.175h-.413a.8.8,0,0,1,.112-.294.97.97,0,0,1,.231-.252,1.206,1.206,0,0,1,.357-.168,1.768,1.768,0,0,1,.5-.063,1.358,1.358,0,0,1,.518.084.742.742,0,0,1,.469.546,1.818,1.818,0,0,1,.042.392v1.68Zm-.441-1.288a2.778,2.778,0,0,0-.392.021,2.557,2.557,0,0,0-.462.084,1.218,1.218,0,0,0-.385.175.385.385,0,0,0-.161.322c0,.287.189.434.574.434a.618.618,0,0,0,.315-.077,1.216,1.216,0,0,0,.259-.182,1.065,1.065,0,0,0,.182-.224.391.391,0,0,0,.07-.2v-.35Z" transform="translate(-73.628 -16.949)" fill="#dcdcdc" stroke="#dcdcdc" stroke-width="1"/>
    <path id="패스_50" data-name="패스 50" d="M245.816,52.009h-.448V48.544a.589.589,0,0,0-.056-.259.4.4,0,0,0-.182-.175h.476a.238.238,0,0,1,.154.042.162.162,0,0,1,.049.14V52Z" transform="translate(-74.924 -16.427)" fill="#dcdcdc" stroke="#dcdcdc" stroke-width="1"/>
  </g>
</svg>
