<svg xmlns="http://www.w3.org/2000/svg" xmlns:xlink="http://www.w3.org/1999/xlink" width="28" height="28" viewBox="0 0 28 28">
  <defs>
    <clipPath id="clip-path">
      <rect id="사각형_137" data-name="사각형 137" width="28" height="28" transform="translate(324 133)" fill="#0091ff"/>
    </clipPath>
  </defs>
  <g id="menu_icon" transform="translate(-324 -133)" clip-path="url(#clip-path)">
    <g id="lnr-menu" transform="translate(320.5 128.625)">
      <path id="패스_140" data-name="패스 140" d="M30.625,10.5H4.375a.875.875,0,0,1,0-1.75h26.25a.875.875,0,0,1,0,1.75Z" fill="#fff"/>
      <path id="패스_141" data-name="패스 141" d="M30.625,19.25H4.375a.875.875,0,0,1,0-1.75h26.25a.875.875,0,0,1,0,1.75Z" fill="#fff"/>
      <path id="패스_142" data-name="패스 142" d="M30.625,28H4.375a.875.875,0,0,1,0-1.75h26.25a.875.875,0,0,1,0,1.75Z" fill="#fff"/>
    </g>
  </g>
</svg>
