<svg xmlns="http://www.w3.org/2000/svg" xmlns:xlink="http://www.w3.org/1999/xlink" width="24" height="24" viewBox="0 0 24 24">
  <defs>
    <clipPath id="clip-path">
      <rect id="사각형_163" data-name="사각형 163" width="24" height="24" transform="translate(310 193)" fill="#f60606"/>
    </clipPath>
  </defs>
  <g id="nav_home" transform="translate(-310 -193)" clip-path="url(#clip-path)">
    <path id="lnr-home" d="M23.847,14.6l-10.6-11.71A1.671,1.671,0,0,0,12,2.325h0a1.675,1.675,0,0,0-1.25.564L.155,14.6a.6.6,0,1,0,.889.8L3.6,12.579V22.2A1.8,1.8,0,0,0,5.4,24H18.6a1.8,1.8,0,0,0,1.8-1.8V12.579L22.955,15.4a.6.6,0,1,0,.889-.805ZM14.4,22.8H9.6V17.4a.6.6,0,0,1,.6-.6h3.6a.6.6,0,0,1,.6.6Zm4.8-.6a.6.6,0,0,1-.6.6h-3V17.4a1.8,1.8,0,0,0-1.8-1.8H10.2a1.8,1.8,0,0,0-1.8,1.8v5.4h-3a.6.6,0,0,1-.6-.6V11.253l6.84-7.56a.468.468,0,0,1,.72,0l6.84,7.56Z" transform="translate(310 191.837)"/>
  </g>
</svg>
