<svg xmlns="http://www.w3.org/2000/svg" xmlns:xlink="http://www.w3.org/1999/xlink" width="232.126" height="56" viewBox="0 0 232.126 56">
  <defs>
    <radialGradient id="radial-gradient" cx="0.157" cy="0.28" r="0.525" gradientTransform="matrix(0.814, -0.063, 0.051, 0.998, 0.11, 0.161)" gradientUnits="objectBoundingBox">
      <stop offset="0" stop-color="#00afec"/>
      <stop offset="1" stop-color="#0068b7"/>
    </radialGradient>
    <radialGradient id="radial-gradient-2" cx="0.165" cy="0.253" r="0.667" gradientTransform="matrix(0.794, 0.097, -0.078, 0.995, -1.057, 0.314)" gradientUnits="objectBoundingBox">
      <stop offset="0" stop-color="#d2dc00"/>
      <stop offset="1" stop-color="#00a73c"/>
    </radialGradient>
    <radialGradient id="radial-gradient-3" cx="0.436" cy="0.157" r="0.299" gradientTransform="matrix(1.505, -0.063, 0.095, 0.998, -2.721, 0.28)" gradientUnits="objectBoundingBox">
      <stop offset="0" stop-color="#ffe300"/>
      <stop offset="1" stop-color="#f39800"/>
    </radialGradient>
  </defs>
  <g id="top_logo" transform="translate(0.006 0.001)">
    <path id="패스_1" data-name="패스 1" d="M57.659,18.768c5.008,4.92-11.248,12.16-16.128,13.3-4.512.88-22.36,4.3-22.992-22.848C18.443,5.1,20.755-2.04,30.531.552,37.6,2.744,31.179,21.7,42.083,23.088c7.344.936,11.808-8.032,15.584-4.32Z" transform="translate(-3.708 0)" opacity="0.8" fill="url(#radial-gradient)"/>
    <path id="패스_2" data-name="패스 2" d="M56.658,48.264c5.464-5.728-10.832-12.536-15.664-13.84-4.472-1.032-22.2-5.064-23.768,22.04-.232,4.112,1.832,11.328,11.688,9.072,7.136-1.952-4.576-23.832,6.36-24.848,7.368-.68,15.472,13.768,21.384,7.576Z" transform="translate(-3.443 -9.964)" opacity="0.8" fill="url(#radial-gradient-2)"/>
    <g id="그룹_1" data-name="그룹 1" transform="translate(-0.006 11.069)" opacity="0.8">
      <path id="패스_3" data-name="패스 3" d="M2.471,47.9c7.88,8.288,16.08-6.424,18.432-9.1,1.744-3.616,5.352-9.016-5.856-21.16C12.7,15.1,5.783,14.641,4.111,21.4c-.976,5,17.28,4.768,14.28,11.728C16.367,37.817-7.633,37.281,2.463,47.9Z" transform="translate(0.006 -15.923)" fill="url(#radial-gradient-3)"/>
    </g>
    <path id="패스_4" data-name="패스 4" d="M83.194,30.65c0,.792.024,1.568.072,2.312a6.334,6.334,0,0,0,.424,2,3.048,3.048,0,0,0,1.136,1.4,3.885,3.885,0,0,0,2.2.536,4.163,4.163,0,0,0,2.28-.536A3.141,3.141,0,0,0,90.5,35a5.269,5.269,0,0,0,.448-1.84q.072-1.008.072-1.968V19.57h2.136V31.218a18.659,18.659,0,0,1-.208,2.776,6.441,6.441,0,0,1-.88,2.456,4.919,4.919,0,0,1-1.944,1.744,7.509,7.509,0,0,1-3.432.656,8.016,8.016,0,0,1-2.816-.432A4.468,4.468,0,0,1,82,37.154a5.082,5.082,0,0,1-1.04-2.064,11.043,11.043,0,0,1-.32-2.816V21.97a4.01,4.01,0,0,0-.232-1.416,2.075,2.075,0,0,0-.8-.984h2.64a.965.965,0,0,1,.7.272,1.189,1.189,0,0,1,.264.84v9.976Z" transform="translate(-16.381 -5.185)" fill="#0068b7"/>
    <path id="패스_5" data-name="패스 5" d="M83.194,30.65c0,.792.024,1.568.072,2.312a6.334,6.334,0,0,0,.424,2,3.048,3.048,0,0,0,1.136,1.4,3.885,3.885,0,0,0,2.2.536,4.163,4.163,0,0,0,2.28-.536A3.141,3.141,0,0,0,90.5,35a5.269,5.269,0,0,0,.448-1.84q.072-1.008.072-1.968V19.57h2.136V31.218a18.659,18.659,0,0,1-.208,2.776,6.441,6.441,0,0,1-.88,2.456,4.919,4.919,0,0,1-1.944,1.744,7.509,7.509,0,0,1-3.432.656,8.016,8.016,0,0,1-2.816-.432A4.468,4.468,0,0,1,82,37.154a5.082,5.082,0,0,1-1.04-2.064,11.043,11.043,0,0,1-.32-2.816V21.97a4.01,4.01,0,0,0-.232-1.416,2.075,2.075,0,0,0-.8-.984h2.64a.965.965,0,0,1,.7.272,1.189,1.189,0,0,1,.264.84v9.976Z" transform="translate(-16.381 -5.185)" fill="none" stroke="#0068b7" stroke-width="0.25"/>
    <path id="패스_6" data-name="패스 6" d="M108.03,19.56a.915.915,0,0,1,.688.272,1.226,1.226,0,0,1,.256.84V35.328c0,.576.088.936.264,1.088a1.727,1.727,0,0,0,1.064.224h6.608v1.9H106.43V21.888a3.674,3.674,0,0,0-.224-1.312,2.056,2.056,0,0,0-.816-1.008h2.64Z" transform="translate(-21.679 -5.173)" fill="#0068b7"/>
    <path id="패스_7" data-name="패스 7" d="M108.03,19.56a.915.915,0,0,1,.688.272,1.226,1.226,0,0,1,.256.84V35.328c0,.576.088.936.264,1.088a1.727,1.727,0,0,0,1.064.224h6.608v1.9H106.43V21.888a3.674,3.674,0,0,0-.224-1.312,2.056,2.056,0,0,0-.816-1.008h2.64Z" transform="translate(-21.679 -5.173)" fill="none" stroke="#0068b7" stroke-width="0.25"/>
    <path id="패스_8" data-name="패스 8" d="M140.828,23.772c-.32.016-.648.048-.984.072s-.664.056-.992.056a1.2,1.2,0,0,1-.616-.192,1.052,1.052,0,0,1-.44-.72,3.455,3.455,0,0,0-.288-.68,1.958,1.958,0,0,0-.552-.632,3.034,3.034,0,0,0-.88-.456,3.919,3.919,0,0,0-1.264-.176,3.11,3.11,0,0,0-2.088.72,5.4,5.4,0,0,0-1.376,1.808,9.221,9.221,0,0,0-.768,2.352,12.681,12.681,0,0,0-.24,2.352c0,.52.024,1.1.072,1.728a14.171,14.171,0,0,0,.272,1.9,11.031,11.031,0,0,0,.584,1.872,5.941,5.941,0,0,0,.984,1.608,4.565,4.565,0,0,0,1.48,1.112,4.729,4.729,0,0,0,2.064.416,6.823,6.823,0,0,0,2.432-.472,11.14,11.14,0,0,0,2.3-1.12c.032.368.056.736.1,1.1s.064.728.1,1.1a9.036,9.036,0,0,1-1.24.464c-.472.144-.968.272-1.48.384s-1.032.192-1.552.256a13.422,13.422,0,0,1-1.424.088,7.382,7.382,0,0,1-3.264-.672,5.991,5.991,0,0,1-2.3-1.936,8.88,8.88,0,0,1-1.376-3.1,17.335,17.335,0,0,1-.456-4.176,16.531,16.531,0,0,1,.392-3.68,8.923,8.923,0,0,1,1.264-3.032,6.381,6.381,0,0,1,2.272-2.056,7.114,7.114,0,0,1,3.416-.76,8.213,8.213,0,0,1,2.52.336,4.877,4.877,0,0,1,1.72.952,4.189,4.189,0,0,1,1.072,1.432,7.354,7.354,0,0,1,.56,1.752" transform="translate(-26.257 -5.117)" fill="#89c122"/>
    <path id="패스_9" data-name="패스 9" d="M140.828,23.772c-.32.016-.648.048-.984.072s-.664.056-.992.056a1.2,1.2,0,0,1-.616-.192,1.052,1.052,0,0,1-.44-.72,3.455,3.455,0,0,0-.288-.68,1.958,1.958,0,0,0-.552-.632,3.034,3.034,0,0,0-.88-.456,3.919,3.919,0,0,0-1.264-.176,3.11,3.11,0,0,0-2.088.72,5.4,5.4,0,0,0-1.376,1.808,9.221,9.221,0,0,0-.768,2.352,12.681,12.681,0,0,0-.24,2.352c0,.52.024,1.1.072,1.728a14.171,14.171,0,0,0,.272,1.9,11.031,11.031,0,0,0,.584,1.872,5.941,5.941,0,0,0,.984,1.608,4.565,4.565,0,0,0,1.48,1.112,4.729,4.729,0,0,0,2.064.416,6.823,6.823,0,0,0,2.432-.472,11.14,11.14,0,0,0,2.3-1.12c.032.368.056.736.1,1.1s.064.728.1,1.1a9.036,9.036,0,0,1-1.24.464c-.472.144-.968.272-1.48.384s-1.032.192-1.552.256a13.422,13.422,0,0,1-1.424.088,7.382,7.382,0,0,1-3.264-.672,5.991,5.991,0,0,1-2.3-1.936,8.88,8.88,0,0,1-1.376-3.1,17.335,17.335,0,0,1-.456-4.176,16.531,16.531,0,0,1,.392-3.68,8.923,8.923,0,0,1,1.264-3.032,6.381,6.381,0,0,1,2.272-2.056,7.114,7.114,0,0,1,3.416-.76,8.213,8.213,0,0,1,2.52.336,4.877,4.877,0,0,1,1.72.952,4.189,4.189,0,0,1,1.072,1.432,7.354,7.354,0,0,1,.56,1.752Z" transform="translate(-26.257 -5.117)" fill="none" stroke="#89c122" stroke-width="0.25"/>
    <path id="패스_10" data-name="패스 10" d="M151.994,19.56a.965.965,0,0,1,.7.272,1.189,1.189,0,0,1,.264.84v7h7.568V19.56h2.528v19H160.53V29.568h-7.568V38.56h-2.52V21.96a4.01,4.01,0,0,0-.232-1.416,1.961,1.961,0,0,0-.8-.984H152Z" transform="translate(-30.742 -5.173)" fill="#89c122"/>
    <path id="패스_11" data-name="패스 11" d="M151.994,19.56a.965.965,0,0,1,.7.272,1.189,1.189,0,0,1,.264.84v7h7.568V19.56h2.528v19H160.53V29.568h-7.568V38.56h-2.52V21.96a4.01,4.01,0,0,0-.232-1.416,1.961,1.961,0,0,0-.8-.984H152Z" transform="translate(-30.742 -5.173)" fill="none" stroke="#89c122" stroke-width="0.25"/>
    <path id="패스_12" data-name="패스 12" d="M184.39,19.56v1.976H178.2a4.964,4.964,0,0,0-.64.024.839.839,0,0,0-.392.128.557.557,0,0,0-.192.3,2.051,2.051,0,0,0-.056.552v5.128h6.744v1.9h-6.744v5.96q0,.756.264.936a2.007,2.007,0,0,0,1.024.176h6.608v1.9H174.422V21.888a3.858,3.858,0,0,0-.216-1.312,2.056,2.056,0,0,0-.816-1.008h11.016Z" transform="translate(-35.666 -5.173)" fill="#89c122"/>
    <path id="패스_13" data-name="패스 13" d="M184.39,19.56v1.976H178.2a4.964,4.964,0,0,0-.64.024.839.839,0,0,0-.392.128.557.557,0,0,0-.192.3,2.051,2.051,0,0,0-.056.552v5.128h6.744v1.9h-6.744v5.96q0,.756.264.936a2.007,2.007,0,0,0,1.024.176h6.608v1.9H174.422V21.888a3.858,3.858,0,0,0-.216-1.312,2.056,2.056,0,0,0-.816-1.008h11.016Z" transform="translate(-35.666 -5.173)" fill="none" stroke="#89c122" stroke-width="0.25"/>
    <path id="패스_14" data-name="패스 14" d="M196.4,38.524h-2.04V21.948a4.042,4.042,0,0,0-.232-1.416,2,2,0,0,0-.8-.984h2.776a1.3,1.3,0,0,1,.872.328,2.187,2.187,0,0,1,.6.9q1.236,3.444,2.488,6.8t2.488,6.768c.936-2.48,1.864-4.936,2.792-7.392s1.848-4.92,2.784-7.416h2.96V38.508h-2.36c0-2.528,0-5.04-.016-7.544s-.008-5.016-.008-7.544q-1.4,3.792-2.776,7.544t-2.776,7.544h-1.632q-1.284-3.588-2.56-7.128t-2.56-7.128V38.5Z" transform="translate(-39.8 -5.168)" fill="#89c122"/>
    <path id="패스_15" data-name="패스 15" d="M196.4,38.524h-2.04V21.948a4.042,4.042,0,0,0-.232-1.416,2,2,0,0,0-.8-.984h2.776a1.3,1.3,0,0,1,.872.328,2.187,2.187,0,0,1,.6.9q1.236,3.444,2.488,6.8t2.488,6.768c.936-2.48,1.864-4.936,2.792-7.392s1.848-4.92,2.784-7.416h2.96V38.508h-2.36c0-2.528,0-5.04-.016-7.544s-.008-5.016-.008-7.544q-1.4,3.792-2.776,7.544t-2.776,7.544h-1.632q-1.284-3.588-2.56-7.128t-2.56-7.128V38.5Z" transform="translate(-39.8 -5.168)" fill="none" stroke="#89c122" stroke-width="0.25"/>
    <path id="패스_16" data-name="패스 16" d="M225.962,38.526h-2.544V21.95a4.248,4.248,0,0,0-.216-1.416,1.9,1.9,0,0,0-.792-.984h2.616a.892.892,0,0,1,.688.28,1.2,1.2,0,0,1,.248.832V38.526Z" transform="translate(-45.705 -5.17)" fill="#89c122"/>
    <path id="패스_17" data-name="패스 17" d="M225.962,38.526h-2.544V21.95a4.248,4.248,0,0,0-.216-1.416,1.9,1.9,0,0,0-.792-.984h2.616a.892.892,0,0,1,.688.28,1.2,1.2,0,0,1,.248.832V38.526Z" transform="translate(-45.705 -5.17)" fill="none" stroke="#89c122" stroke-width="0.25"/>
    <path id="패스_18" data-name="패스 18" d="M247.058,23.772c-.32.016-.648.048-.984.072s-.664.056-.984.056a1.2,1.2,0,0,1-.616-.192,1.052,1.052,0,0,1-.44-.72,3.454,3.454,0,0,0-.288-.68,1.958,1.958,0,0,0-.552-.632,3.141,3.141,0,0,0-.88-.456,3.919,3.919,0,0,0-1.264-.176,3.11,3.11,0,0,0-2.088.72,5.4,5.4,0,0,0-1.376,1.808,9.219,9.219,0,0,0-.768,2.352,12.679,12.679,0,0,0-.24,2.352c0,.52.024,1.1.072,1.728a14.173,14.173,0,0,0,.272,1.9,10.354,10.354,0,0,0,.584,1.872,6.147,6.147,0,0,0,.984,1.608,4.482,4.482,0,0,0,1.48,1.112,4.729,4.729,0,0,0,2.064.416,6.823,6.823,0,0,0,2.432-.472,11.14,11.14,0,0,0,2.3-1.12c.032.368.056.736.088,1.1s.064.728.1,1.1a9.035,9.035,0,0,1-1.24.464c-.472.144-.968.272-1.48.384s-1.032.192-1.544.256a13.422,13.422,0,0,1-1.424.088,7.382,7.382,0,0,1-3.264-.672,5.991,5.991,0,0,1-2.3-1.936,8.737,8.737,0,0,1-1.376-3.1,17.314,17.314,0,0,1-.464-4.176,16.53,16.53,0,0,1,.392-3.68,8.923,8.923,0,0,1,1.264-3.032,6.25,6.25,0,0,1,2.272-2.056,7.114,7.114,0,0,1,3.416-.76,8.214,8.214,0,0,1,2.52.336,4.877,4.877,0,0,1,1.72.952,4.189,4.189,0,0,1,1.072,1.432,7.354,7.354,0,0,1,.56,1.752" transform="translate(-48.351 -5.117)" fill="#89c122"/>
    <path id="패스_19" data-name="패스 19" d="M247.058,23.772c-.32.016-.648.048-.984.072s-.664.056-.984.056a1.2,1.2,0,0,1-.616-.192,1.052,1.052,0,0,1-.44-.72,3.454,3.454,0,0,0-.288-.68,1.958,1.958,0,0,0-.552-.632,3.141,3.141,0,0,0-.88-.456,3.919,3.919,0,0,0-1.264-.176,3.11,3.11,0,0,0-2.088.72,5.4,5.4,0,0,0-1.376,1.808,9.219,9.219,0,0,0-.768,2.352,12.679,12.679,0,0,0-.24,2.352c0,.52.024,1.1.072,1.728a14.173,14.173,0,0,0,.272,1.9,10.354,10.354,0,0,0,.584,1.872,6.147,6.147,0,0,0,.984,1.608,4.482,4.482,0,0,0,1.48,1.112,4.729,4.729,0,0,0,2.064.416,6.823,6.823,0,0,0,2.432-.472,11.14,11.14,0,0,0,2.3-1.12c.032.368.056.736.088,1.1s.064.728.1,1.1a9.035,9.035,0,0,1-1.24.464c-.472.144-.968.272-1.48.384s-1.032.192-1.544.256a13.422,13.422,0,0,1-1.424.088,7.382,7.382,0,0,1-3.264-.672,5.991,5.991,0,0,1-2.3-1.936,8.737,8.737,0,0,1-1.376-3.1,17.314,17.314,0,0,1-.464-4.176,16.53,16.53,0,0,1,.392-3.68,8.923,8.923,0,0,1,1.264-3.032,6.25,6.25,0,0,1,2.272-2.056,7.114,7.114,0,0,1,3.416-.76,8.214,8.214,0,0,1,2.52.336,4.877,4.877,0,0,1,1.72.952,4.189,4.189,0,0,1,1.072,1.432,7.354,7.354,0,0,1,.56,1.752Z" transform="translate(-48.351 -5.117)" fill="none" stroke="#89c122" stroke-width="0.25"/>
    <path id="패스_20" data-name="패스 20" d="M260.148,21.242a3.157,3.157,0,0,0-.128-.92,1.559,1.559,0,0,0-.584-.792h2.176a1.3,1.3,0,0,1,.944.312,2.842,2.842,0,0,1,.576.92L269.26,38.5h-2.688c-.336-.976-.664-1.96-.984-2.936s-.648-1.96-.984-2.96h-6.056l-2,5.912H254.46q1.332-3.912,2.648-7.792t2.648-7.792c.1-.32.2-.64.272-.952a3.093,3.093,0,0,0,.112-.744m3.784,9.4c-.4-1.2-.792-2.384-1.184-3.56s-.784-2.376-1.184-3.584c-.4,1.216-.784,2.408-1.168,3.584s-.776,2.368-1.168,3.56Z" transform="translate(-52.473 -5.165)" fill="#89c122"/>
    <path id="패스_21" data-name="패스 21" d="M260.148,21.242a3.157,3.157,0,0,0-.128-.92,1.559,1.559,0,0,0-.584-.792h2.176a1.3,1.3,0,0,1,.944.312,2.842,2.842,0,0,1,.576.92L269.26,38.5h-2.688c-.336-.976-.664-1.96-.984-2.936s-.648-1.96-.984-2.96h-6.056l-2,5.912H254.46q1.332-3.912,2.648-7.792t2.648-7.792c.1-.32.2-.64.272-.952a3.093,3.093,0,0,0,.112-.744Zm3.784,9.4c-.4-1.2-.792-2.384-1.184-3.56s-.784-2.376-1.184-3.584c-.4,1.216-.784,2.408-1.168,3.584s-.776,2.368-1.168,3.56Z" transform="translate(-52.473 -5.165)" fill="none" stroke="#89c122" stroke-width="0.25"/>
    <path id="패스_22" data-name="패스 22" d="M280.21,19.56a.915.915,0,0,1,.688.272,1.226,1.226,0,0,1,.256.84V35.328c0,.576.088.936.264,1.088a1.727,1.727,0,0,0,1.064.224h6.608v1.9H278.61V21.888a3.675,3.675,0,0,0-.224-1.312,2.056,2.056,0,0,0-.816-1.008h2.64Z" transform="translate(-57.095 -5.173)" fill="#89c122"/>
    <path id="패스_23" data-name="패스 23" d="M280.21,19.56a.915.915,0,0,1,.688.272,1.226,1.226,0,0,1,.256.84V35.328c0,.576.088.936.264,1.088a1.727,1.727,0,0,0,1.064.224h6.608v1.9H278.61V21.888a3.675,3.675,0,0,0-.224-1.312,2.056,2.056,0,0,0-.816-1.008h2.64Z" transform="translate(-57.095 -5.173)" fill="none" stroke="#89c122" stroke-width="0.25"/>
    <path id="패스_24" data-name="패스 24" d="M127.408,50.814c0,.192.008.384.024.568a1.206,1.206,0,0,0,.152.488.862.862,0,0,0,.376.336,1.623,1.623,0,0,0,.72.12,1.6,1.6,0,0,0,.72-.136.97.97,0,0,0,.384-.352,1.091,1.091,0,0,0,.144-.456c.016-.168.032-.32.032-.472V48.278h.48v2.664a3.32,3.32,0,0,1-.064.632,1.193,1.193,0,0,1-.264.544,1.3,1.3,0,0,1-.56.392,2.7,2.7,0,0,1-.976.144,2.821,2.821,0,0,1-.792-.1,1.373,1.373,0,0,1-.528-.272,1.053,1.053,0,0,1-.3-.464,1.916,1.916,0,0,1-.088-.632V48.766a.7.7,0,0,0-.064-.3.423.423,0,0,0-.208-.2h.576a.272.272,0,0,1,.176.048.2.2,0,0,1,.056.16V50.8Z" transform="translate(-26.018 -11.937)" fill="#b5b5b6"/>
    <path id="패스_25" data-name="패스 25" d="M135.56,52.9h-.48V51.214a2.532,2.532,0,0,0-.04-.472.7.7,0,0,0-.136-.312.563.563,0,0,0-.248-.176,1.129,1.129,0,0,0-.392-.056.823.823,0,0,0-.3.064,1.232,1.232,0,0,0-.312.176,1.334,1.334,0,0,0-.272.288,1.351,1.351,0,0,0-.2.384V52.9h-.512V50.286a.7.7,0,0,0-.064-.3.5.5,0,0,0-.208-.2h.552a.272.272,0,0,1,.176.048.226.226,0,0,1,.056.16v.472a1.579,1.579,0,0,1,.584-.5,1.428,1.428,0,0,1,.656-.168,1.562,1.562,0,0,1,.432.056.919.919,0,0,1,.368.2,1.044,1.044,0,0,1,.256.368,1.435,1.435,0,0,1,.1.56v1.9Z" transform="translate(-27.208 -12.26)" fill="#b5b5b6"/>
    <path id="패스_26" data-name="패스 26" d="M138.274,52.566h-.512v-3.96a.673.673,0,0,0-.064-.3.459.459,0,0,0-.208-.2h.552a.272.272,0,0,1,.176.048.186.186,0,0,1,.056.16v4.24Z" transform="translate(-28.246 -11.901)" fill="#b5b5b6"/>
    <path id="패스_27" data-name="패스 27" d="M140.764,52.59h-.512V49.966a.6.6,0,0,0-.064-.3.459.459,0,0,0-.208-.2h.552a.272.272,0,0,1,.176.048.2.2,0,0,1,.056.168v2.9Zm.064-4.064a.287.287,0,0,1-.128.248.44.44,0,0,1-.28.1.419.419,0,0,1-.272-.1.293.293,0,0,1-.112-.248.289.289,0,0,1,.112-.24.425.425,0,0,1,.28-.1.4.4,0,0,1,.272.1.3.3,0,0,1,.128.24" transform="translate(-28.757 -11.918)" fill="#b5b5b6"/>
    <path id="패스_28" data-name="패스 28" d="M143.054,50.444a1.463,1.463,0,0,1,.5-.5,1.284,1.284,0,0,1,.6-.152,1.042,1.042,0,0,1,.6.176.952.952,0,0,1,.36.528,1.44,1.44,0,0,1,.528-.544,1.275,1.275,0,0,1,.64-.168,1.085,1.085,0,0,1,.568.136,1.18,1.18,0,0,1,.352.336,1.113,1.113,0,0,1,.168.416,1.794,1.794,0,0,1,.048.384v1.832h-.52V51.156a1.583,1.583,0,0,0-.024-.336.809.809,0,0,0-.112-.312.714.714,0,0,0-.232-.232.79.79,0,0,0-.392-.088.631.631,0,0,0-.368.12,1.338,1.338,0,0,0-.3.3,1.512,1.512,0,0,0-.2.392,1.226,1.226,0,0,0-.064.4v1.488h-.5V51.26a2.241,2.241,0,0,0-.024-.408,1.147,1.147,0,0,0-.1-.344.548.548,0,0,0-.216-.232.684.684,0,0,0-.384-.088.779.779,0,0,0-.536.24,1.535,1.535,0,0,0-.4.664v1.792h-.512V50.268a.663.663,0,0,0-.064-.288.459.459,0,0,0-.208-.2h.544a.272.272,0,0,1,.176.048.2.2,0,0,1,.056.168v.44Z" transform="translate(-29.242 -12.257)" fill="#b5b5b6"/>
    <path id="패스_29" data-name="패스 29" d="M150.684,52.59h-.512V49.966a.6.6,0,0,0-.064-.3.459.459,0,0,0-.208-.2h.552a.272.272,0,0,1,.176.048.233.233,0,0,1,.056.168v2.9Zm.064-4.064a.287.287,0,0,1-.128.248.44.44,0,0,1-.28.1.419.419,0,0,1-.272-.1.316.316,0,0,1-.112-.248.289.289,0,0,1,.112-.24.425.425,0,0,1,.28-.1.4.4,0,0,1,.272.1.3.3,0,0,1,.12.24" transform="translate(-30.795 -11.918)" fill="#b5b5b6"/>
    <path id="패스_30" data-name="패스 30" d="M154.39,49.982h-1.08v1.68c0,.136,0,.256.008.344a.332.332,0,0,0,.072.216.312.312,0,0,0,.216.112,1.933,1.933,0,0,0,.424.032h.144a.317.317,0,0,0,.12-.016v.312c-.064.016-.144.024-.256.04a1.567,1.567,0,0,1-.248.016,2.423,2.423,0,0,1-.432-.024.839.839,0,0,1-.328-.112.54.54,0,0,1-.2-.24,1.037,1.037,0,0,1-.072-.424V49.982h-.728v-.328h.728V49.2a.538.538,0,0,1,.024-.144.208.208,0,0,1,.12-.128c.072-.032.136-.056.192-.088s.128-.056.2-.088v.912h1.08v.328Z" transform="translate(-31.238 -12.039)" fill="#b5b5b6"/>
    <path id="패스_31" data-name="패스 31" d="M156.246,51.14a1.688,1.688,0,0,0,.056.584.972.972,0,0,0,.256.44,1.207,1.207,0,0,0,.488.28,2.627,2.627,0,0,0,.776.1,1.937,1.937,0,0,0,.3-.016,1.574,1.574,0,0,0,.28-.048v.288a3.559,3.559,0,0,1-.5.112,4.079,4.079,0,0,1-.456.032,1.851,1.851,0,0,1-1.288-.424,1.554,1.554,0,0,1-.456-1.224,1.776,1.776,0,0,1,.1-.632,1.406,1.406,0,0,1,.3-.48,1.264,1.264,0,0,1,.472-.3,1.688,1.688,0,0,1,.616-.1,1.382,1.382,0,0,1,.664.144,1.336,1.336,0,0,1,.424.36,1.537,1.537,0,0,1,.232.456,1.919,1.919,0,0,1,.08.432h-2.368Zm1.848-.3a1.257,1.257,0,0,0-.064-.264.7.7,0,0,0-.152-.256.728.728,0,0,0-.264-.192.906.906,0,0,0-.408-.08,1.036,1.036,0,0,0-.392.072.9.9,0,0,0-.28.184,1,1,0,0,0-.184.256,1.011,1.011,0,0,0-.1.272h1.832Z" transform="translate(-31.996 -12.25)" fill="#b5b5b6"/>
    <path id="패스_32" data-name="패스 32" d="M162.478,48.626a.727.727,0,0,0-.064-.3.423.423,0,0,0-.208-.2h.544a.258.258,0,0,1,.168.064.171.171,0,0,1,.072.144V52.57h-.56v-.392a1.009,1.009,0,0,1-.2.152,2.459,2.459,0,0,1-.248.136,1.651,1.651,0,0,1-.28.1,1.255,1.255,0,0,1-.3.04,1.513,1.513,0,0,1-.664-.128,1.3,1.3,0,0,1-.456-.336,1.273,1.273,0,0,1-.256-.5,2.036,2.036,0,0,1-.08-.592,1.9,1.9,0,0,1,.08-.56,1.537,1.537,0,0,1,.256-.5,1.359,1.359,0,0,1,.44-.352,1.38,1.38,0,0,1,.624-.136,1.913,1.913,0,0,1,.632.1,1.044,1.044,0,0,1,.288.168.987.987,0,0,1,.224.28V48.626Zm-.024,2.328a1.123,1.123,0,0,0-.056-.328,1.254,1.254,0,0,0-.176-.36.957.957,0,0,0-.3-.288.788.788,0,0,0-.44-.12.921.921,0,0,0-.528.128.876.876,0,0,0-.312.3,1.159,1.159,0,0,0-.144.392,2.345,2.345,0,0,0-.032.392,1.739,1.739,0,0,0,.04.4,1.074,1.074,0,0,0,.152.384.9.9,0,0,0,.312.288,1.089,1.089,0,0,0,.52.112.852.852,0,0,0,.464-.12,1,1,0,0,0,.3-.3,1.353,1.353,0,0,0,.16-.368,1.407,1.407,0,0,0,.048-.328v-.192Z" transform="translate(-32.868 -11.906)" fill="#b5b5b6"/>
    <path id="패스_33" data-name="패스 33" d="M167.724,48.28a.272.272,0,0,1,.176.048.2.2,0,0,1,.056.16V52q0,.168.072.216a.584.584,0,0,0,.28.04h2.1v.336H167.42V48.744a.577.577,0,0,0-.064-.256.456.456,0,0,0-.216-.208h.568Z" transform="translate(-34.347 -11.937)" fill="#b5b5b6"/>
    <path id="패스_34" data-name="패스 34" d="M174.552,52.868h-.5v-.5a.975.975,0,0,1-.224.256,1.434,1.434,0,0,1-.3.176,2.216,2.216,0,0,1-.328.1,1.476,1.476,0,0,1-.312.032,1.157,1.157,0,0,1-.376-.056,1.2,1.2,0,0,1-.3-.152.691.691,0,0,1-.208-.224.554.554,0,0,1-.072-.272.843.843,0,0,1,.2-.592,1.376,1.376,0,0,1,.512-.344,2.625,2.625,0,0,1,.688-.16c.248-.024.488-.04.728-.048V50.9a1.4,1.4,0,0,0-.032-.32.653.653,0,0,0-.1-.264.478.478,0,0,0-.2-.176.635.635,0,0,0-.32-.064,1.232,1.232,0,0,0-.5.1.39.39,0,0,0-.24.3c-.024.128-.088.2-.176.2h-.464a1.078,1.078,0,0,1,.128-.336,1.108,1.108,0,0,1,.264-.288,1.378,1.378,0,0,1,.408-.192,2,2,0,0,1,.568-.072,1.552,1.552,0,0,1,.592.1.848.848,0,0,1,.536.624,2.077,2.077,0,0,1,.048.448v1.92Zm-.5-1.472a3.174,3.174,0,0,0-.448.024,2.8,2.8,0,0,0-.528.1,1.314,1.314,0,0,0-.44.2.441.441,0,0,0-.184.368c0,.328.216.5.656.5a.706.706,0,0,0,.36-.088,1.389,1.389,0,0,0,.3-.208.97.97,0,0,0,.2-.256.447.447,0,0,0,.08-.232v-.4Z" transform="translate(-35.326 -12.259)" fill="#b5b5b6"/>
    <path id="패스_35" data-name="패스 35" d="M176.652,48.128a.288.288,0,0,1,.176.056.182.182,0,0,1,.072.144V50.12a1.089,1.089,0,0,1,.232-.3,1.535,1.535,0,0,1,.28-.184,1.053,1.053,0,0,1,.3-.1,1.378,1.378,0,0,1,.312-.032,1.392,1.392,0,0,1,.632.128,1.25,1.25,0,0,1,.432.352,1.52,1.52,0,0,1,.248.5,1.949,1.949,0,0,1,.08.568,1.6,1.6,0,0,1-.112.576,1.565,1.565,0,0,1-.32.488,1.558,1.558,0,0,1-1.1.48,1.208,1.208,0,0,1-.52-.1,1.841,1.841,0,0,1-.416-.264l-.344.336h-.232V48.616a.7.7,0,0,0-.064-.3.459.459,0,0,0-.208-.2h.544ZM178.884,51a2.232,2.232,0,0,0-.04-.376.925.925,0,0,0-.488-.648,1.092,1.092,0,0,0-.536-.1.706.706,0,0,0-.368.112,1.4,1.4,0,0,0-.3.272,1.588,1.588,0,0,0-.2.36,1.1,1.1,0,0,0-.08.384v.176a1.241,1.241,0,0,0,.088.472,1.163,1.163,0,0,0,.224.344.98.98,0,0,0,.3.208.8.8,0,0,0,.312.072,1.022,1.022,0,0,0,.448-.1.944.944,0,0,0,.336-.248,1.227,1.227,0,0,0,.224-.368,1.244,1.244,0,0,0,.08-.456v-.1Z" transform="translate(-36.188 -11.904)" fill="#b5b5b6"/>
    <path id="패스_36" data-name="패스 36" d="M183.9,51.276a2.071,2.071,0,0,1-.1.688,1.449,1.449,0,0,1-.3.528,1.433,1.433,0,0,1-.5.336,1.8,1.8,0,0,1-.672.112,1.594,1.594,0,0,1-.712-.136,1.365,1.365,0,0,1-.5-.368,1.614,1.614,0,0,1-.288-.528,2.048,2.048,0,0,1-.1-.632,1.622,1.622,0,0,1,.416-1.2,1.693,1.693,0,0,1,2.336.056,1.52,1.52,0,0,1,.312.512,1.839,1.839,0,0,1,.1.632m-.552,0a2.1,2.1,0,0,0-.048-.432,1.264,1.264,0,0,0-.168-.416,1,1,0,0,0-.32-.312,1.087,1.087,0,0,0-1.008.008.854.854,0,0,0-.312.32,1.292,1.292,0,0,0-.16.424,2.792,2.792,0,0,0-.04.424,2.691,2.691,0,0,0,.04.408,1.876,1.876,0,0,0,.16.448.917.917,0,0,0,.312.344.861.861,0,0,0,.512.144.89.89,0,0,0,.5-.128.92.92,0,0,0,.32-.312,1.123,1.123,0,0,0,.16-.432,2.363,2.363,0,0,0,.048-.472" transform="translate(-37.139 -12.235)" fill="#b5b5b6"/>
    <path id="패스_37" data-name="패스 37" d="M187.1,50.2a1.127,1.127,0,0,0-.28.04.8.8,0,0,0-.264.128.951.951,0,0,0-.232.24,1.309,1.309,0,0,0-.168.368V52.9h-.512V50.286a.6.6,0,0,0-.064-.3.459.459,0,0,0-.208-.2h.552a.272.272,0,0,1,.176.048.214.214,0,0,1,.056.168v.344a1.356,1.356,0,0,1,.5-.424,1.484,1.484,0,0,1,.592-.128,1.422,1.422,0,0,1,.248.016,1.243,1.243,0,0,1,.232.04v.472a.643.643,0,0,0-.248-.1,1.662,1.662,0,0,0-.384-.04" transform="translate(-38.089 -12.26)" fill="#b5b5b6"/>
    <path id="패스_38" data-name="패스 38" d="M191.576,52.868h-.5v-.5a.974.974,0,0,1-.224.256,1.6,1.6,0,0,1-.3.176,2.215,2.215,0,0,1-.328.1,1.457,1.457,0,0,1-.3.032,1.077,1.077,0,0,1-.368-.056,1.2,1.2,0,0,1-.3-.152.614.614,0,0,1-.208-.224.489.489,0,0,1-.08-.272.882.882,0,0,1,.2-.592,1.376,1.376,0,0,1,.512-.344,2.625,2.625,0,0,1,.688-.16c.248-.024.488-.04.728-.048V50.9a1.063,1.063,0,0,0-.032-.32.653.653,0,0,0-.1-.264.478.478,0,0,0-.2-.176.654.654,0,0,0-.32-.064,1.231,1.231,0,0,0-.5.1.39.39,0,0,0-.24.3c-.024.128-.088.2-.176.2h-.464a.912.912,0,0,1,.128-.336,1.109,1.109,0,0,1,.264-.288,1.378,1.378,0,0,1,.408-.192,2.021,2.021,0,0,1,.576-.072,1.552,1.552,0,0,1,.592.1.848.848,0,0,1,.536.624,2.077,2.077,0,0,1,.048.448v1.92Zm-.5-1.472a3.232,3.232,0,0,0-.448.024,2.8,2.8,0,0,0-.528.1,1.392,1.392,0,0,0-.44.2.441.441,0,0,0-.184.368c0,.328.216.5.656.5a.706.706,0,0,0,.36-.088,1.389,1.389,0,0,0,.3-.208,1.218,1.218,0,0,0,.208-.256.509.509,0,0,0,.072-.232v-.4Z" transform="translate(-38.827 -12.259)" fill="#b5b5b6"/>
    <path id="패스_39" data-name="패스 39" d="M195.332,49.982h-1.08v1.68c0,.136,0,.256.008.344a.332.332,0,0,0,.072.216.312.312,0,0,0,.216.112,1.933,1.933,0,0,0,.424.032h.144a.317.317,0,0,0,.12-.016v.312c-.064.016-.144.024-.248.04a1.567,1.567,0,0,1-.248.016,2.423,2.423,0,0,1-.432-.024.839.839,0,0,1-.328-.112.54.54,0,0,1-.2-.24,1.037,1.037,0,0,1-.072-.424V49.982h-.728v-.328h.728V49.2a.338.338,0,0,1,.024-.144.208.208,0,0,1,.12-.128c.072-.032.136-.056.2-.088s.128-.056.2-.088v.912h1.08v.328Z" transform="translate(-39.652 -12.039)" fill="#b5b5b6"/>
    <path id="패스_40" data-name="패스 40" d="M199.708,51.276a2.071,2.071,0,0,1-.1.688,1.573,1.573,0,0,1-.3.528,1.433,1.433,0,0,1-.5.336,1.742,1.742,0,0,1-.672.112,1.594,1.594,0,0,1-.712-.136,1.365,1.365,0,0,1-.5-.368,1.614,1.614,0,0,1-.288-.528,2.048,2.048,0,0,1-.1-.632,1.622,1.622,0,0,1,.416-1.2,1.693,1.693,0,0,1,2.336.056,1.52,1.52,0,0,1,.312.512,1.839,1.839,0,0,1,.1.632m-.552,0a2.1,2.1,0,0,0-.048-.432,1.449,1.449,0,0,0-.16-.416,1,1,0,0,0-.32-.312.959.959,0,0,0-.5-.12.918.918,0,0,0-.512.128.854.854,0,0,0-.312.32,1.5,1.5,0,0,0-.16.424,2.792,2.792,0,0,0-.04.424,2.691,2.691,0,0,0,.04.408,1.876,1.876,0,0,0,.16.448,1.073,1.073,0,0,0,.312.344.861.861,0,0,0,.512.144.89.89,0,0,0,.5-.128.92.92,0,0,0,.32-.312,1.27,1.27,0,0,0,.16-.432,2.363,2.363,0,0,0,.048-.472" transform="translate(-40.387 -12.235)" fill="#b5b5b6"/>
    <path id="패스_41" data-name="패스 41" d="M202.908,50.2a1.127,1.127,0,0,0-.28.04.7.7,0,0,0-.256.128,1.11,1.11,0,0,0-.232.24,1.981,1.981,0,0,0-.176.368V52.9h-.512V50.286a.7.7,0,0,0-.064-.3.459.459,0,0,0-.208-.2h.552a.272.272,0,0,1,.176.048.214.214,0,0,1,.056.168v.344a1.356,1.356,0,0,1,.5-.424,1.547,1.547,0,0,1,.84-.112,1.243,1.243,0,0,1,.232.04v.472a.643.643,0,0,0-.248-.1,1.662,1.662,0,0,0-.384-.04" transform="translate(-41.337 -12.26)" fill="#b5b5b6"/>
    <path id="패스_42" data-name="패스 42" d="M208.158,49.8l-1.472,2.824a2.88,2.88,0,0,1-.232.4,2.209,2.209,0,0,1-.3.368,1.386,1.386,0,0,1-.376.264,1.07,1.07,0,0,1-.464.1,1.189,1.189,0,0,1-.472-.08.924.924,0,0,1-.32-.208,1.066,1.066,0,0,1-.2-.28.935.935,0,0,1-.1-.312h.6c.016.056.032.12.048.184a.471.471,0,0,0,.1.176.421.421,0,0,0,.16.128.578.578,0,0,0,.256.056.43.43,0,0,0,.216-.072,1.11,1.11,0,0,0,.232-.176,1.375,1.375,0,0,0,.208-.256,1.52,1.52,0,0,0,.16-.3l-1.368-2.4h0a.632.632,0,0,0-.152-.216.846.846,0,0,0-.264-.208h.592a.272.272,0,0,1,.176.048.459.459,0,0,1,.12.16l1.192,2.168,1.16-2.376h.5Z" transform="translate(-41.971 -12.298)" fill="#b5b5b6"/>
    <path id="패스_43" data-name="패스 43" d="M215.17,49.194a.2.2,0,0,1-.136-.032.236.236,0,0,1-.088-.12.425.425,0,0,0-.1-.176.767.767,0,0,0-.192-.152.967.967,0,0,0-.3-.1,1.659,1.659,0,0,0-.424-.04,1.269,1.269,0,0,0-.672.168,1.519,1.519,0,0,0-.456.416,1.739,1.739,0,0,0-.256.552,2.069,2.069,0,0,0-.08.568,2.658,2.658,0,0,0,.024.424,2.317,2.317,0,0,0,.1.456,2.368,2.368,0,0,0,.192.44,1.406,1.406,0,0,0,.792.632,2.041,2.041,0,0,0,.664.1,3.084,3.084,0,0,0,.688-.08,3.6,3.6,0,0,0,.664-.208l.04.344a1.929,1.929,0,0,1-.36.1c-.136.032-.28.056-.424.08s-.288.04-.432.056c-.144,0-.28.016-.4.016a2.015,2.015,0,0,1-1.592-.584,2.358,2.358,0,0,1-.528-1.648,3.18,3.18,0,0,1,.112-.84,1.8,1.8,0,0,1,.368-.68,1.707,1.707,0,0,1,.648-.464,2.469,2.469,0,0,1,.968-.168,2.883,2.883,0,0,1,.688.072,1.668,1.668,0,0,1,.48.192,1.082,1.082,0,0,1,.312.288,1.254,1.254,0,0,1,.16.368l-.44.032Z" transform="translate(-43.544 -11.932)" fill="#b5b5b6"/>
    <path id="패스_44" data-name="패스 44" d="M218.126,50.274a1.581,1.581,0,0,1,.592-.568,1.747,1.747,0,0,1,.712-.152,1.292,1.292,0,0,1,.528.1,1.012,1.012,0,0,1,.352.272,1.2,1.2,0,0,1,.2.352,1.266,1.266,0,0,1,.064.352V52.57h-.5V50.738a1.119,1.119,0,0,0-.04-.272.713.713,0,0,0-.144-.264.8.8,0,0,0-.272-.2.955.955,0,0,0-.424-.08.758.758,0,0,0-.344.088,1.119,1.119,0,0,0-.32.24,1.506,1.506,0,0,0-.248.344,1.255,1.255,0,0,0-.144.384V52.57h-.512V48.626a.7.7,0,0,0-.064-.3.459.459,0,0,0-.208-.2h.544a.251.251,0,0,1,.168.056.182.182,0,0,1,.072.144v1.944Z" transform="translate(-44.664 -11.905)" fill="#b5b5b6"/>
    <path id="패스_45" data-name="패스 45" d="M222.9,51.14a1.688,1.688,0,0,0,.056.584.972.972,0,0,0,.256.44,1.155,1.155,0,0,0,.488.28,2.664,2.664,0,0,0,.776.1,1.936,1.936,0,0,0,.3-.016,1.574,1.574,0,0,0,.28-.048v.288a3.56,3.56,0,0,1-.5.112,4.079,4.079,0,0,1-.456.032,1.851,1.851,0,0,1-1.288-.424,1.582,1.582,0,0,1-.456-1.224,1.776,1.776,0,0,1,.1-.632,1.406,1.406,0,0,1,.3-.48,1.264,1.264,0,0,1,.472-.3,1.688,1.688,0,0,1,.616-.1,1.4,1.4,0,0,1,.664.144,1.306,1.306,0,0,1,.648.816,2.587,2.587,0,0,1,.088.432h-2.368Zm1.848-.3a1.256,1.256,0,0,0-.064-.264.834.834,0,0,0-.152-.256.727.727,0,0,0-.264-.192.906.906,0,0,0-.408-.08,1.036,1.036,0,0,0-.392.072.9.9,0,0,0-.28.184.836.836,0,0,0-.184.256,1.01,1.01,0,0,0-.1.272h1.832Z" transform="translate(-45.692 -12.25)" fill="#b5b5b6"/>
    <path id="패스_46" data-name="패스 46" d="M227.476,50.444a1.463,1.463,0,0,1,.5-.5,1.26,1.26,0,0,1,.6-.152,1.068,1.068,0,0,1,.608.176.952.952,0,0,1,.36.528,1.44,1.44,0,0,1,.528-.544,1.275,1.275,0,0,1,.64-.168,1.028,1.028,0,0,1,.92.472,1.113,1.113,0,0,1,.168.416,1.794,1.794,0,0,1,.048.384v1.832h-.512V51.156a2.372,2.372,0,0,0-.024-.336.809.809,0,0,0-.112-.312.645.645,0,0,0-.232-.232.823.823,0,0,0-.4-.088.614.614,0,0,0-.368.12,1.338,1.338,0,0,0-.3.3,1.512,1.512,0,0,0-.2.392,1.226,1.226,0,0,0-.064.4v1.488h-.5V51.26a2.239,2.239,0,0,0-.024-.408,1.146,1.146,0,0,0-.1-.344.6.6,0,0,0-.216-.232.667.667,0,0,0-.384-.088.779.779,0,0,0-.536.24,1.535,1.535,0,0,0-.4.664v1.792h-.512V50.268a.663.663,0,0,0-.064-.288.423.423,0,0,0-.208-.2h.544a.272.272,0,0,1,.176.048.2.2,0,0,1,.056.168v.44Z" transform="translate(-46.596 -12.257)" fill="#b5b5b6"/>
    <path id="패스_47" data-name="패스 47" d="M235.094,52.59h-.512V49.966a.6.6,0,0,0-.064-.3.5.5,0,0,0-.208-.2h.552a.272.272,0,0,1,.176.048.2.2,0,0,1,.056.168v2.9Zm.064-4.064a.287.287,0,0,1-.128.248.44.44,0,0,1-.28.1.419.419,0,0,1-.272-.1.293.293,0,0,1-.112-.248.289.289,0,0,1,.112-.24.433.433,0,0,1,.544,0,.3.3,0,0,1,.12.24" transform="translate(-48.443 -11.918)" fill="#b5b5b6"/>
    <path id="패스_48" data-name="패스 48" d="M238.86,50.686a.159.159,0,0,1-.088-.024.183.183,0,0,1-.048-.112.516.516,0,0,0-.216-.344.9.9,0,0,0-.536-.128.818.818,0,0,0-.4.088.961.961,0,0,0-.3.232,1.1,1.1,0,0,0-.192.344,1.361,1.361,0,0,0-.064.408,1.811,1.811,0,0,0,.1.632,1.186,1.186,0,0,0,.28.44,1.118,1.118,0,0,0,.448.256,1.91,1.91,0,0,0,.584.08h.168a1.984,1.984,0,0,0,.216-.024c.072,0,.144-.024.224-.032s.136-.024.184-.04v.288a3.725,3.725,0,0,1-.52.1,4.588,4.588,0,0,1-.544.04,2.286,2.286,0,0,1-.68-.1,1.431,1.431,0,0,1-.528-.3,1.337,1.337,0,0,1-.352-.48,1.537,1.537,0,0,1-.128-.648,1.717,1.717,0,0,1,.1-.616,1.245,1.245,0,0,1,.3-.5,1.267,1.267,0,0,1,.488-.336,1.587,1.587,0,0,1,.664-.12,1.99,1.99,0,0,1,.512.064,1.6,1.6,0,0,1,.408.192.9.9,0,0,1,.28.3.861.861,0,0,1,.136.36h-.5Z" transform="translate(-48.873 -12.259)" fill="#b5b5b6"/>
    <path id="패스_49" data-name="패스 49" d="M243.442,52.868h-.5v-.5a.974.974,0,0,1-.224.256,1.434,1.434,0,0,1-.3.176,2.215,2.215,0,0,1-.328.1,1.476,1.476,0,0,1-.312.032,1.108,1.108,0,0,1-.368-.056,1.2,1.2,0,0,1-.3-.152.691.691,0,0,1-.208-.224.564.564,0,0,1-.08-.272.882.882,0,0,1,.2-.592,1.376,1.376,0,0,1,.512-.344,2.625,2.625,0,0,1,.688-.16q.372-.036.72-.048V50.9a1.063,1.063,0,0,0-.032-.32.653.653,0,0,0-.1-.264.478.478,0,0,0-.2-.176.635.635,0,0,0-.32-.064,1.205,1.205,0,0,0-.5.1.39.39,0,0,0-.24.3c-.024.128-.088.2-.176.2h-.472a.912.912,0,0,1,.128-.336,1.109,1.109,0,0,1,.264-.288,1.378,1.378,0,0,1,.408-.192,2.021,2.021,0,0,1,.576-.072,1.552,1.552,0,0,1,.592.1.848.848,0,0,1,.536.624,2.077,2.077,0,0,1,.048.448v1.92Zm-.5-1.472a3.174,3.174,0,0,0-.448.024,2.922,2.922,0,0,0-.528.1,1.392,1.392,0,0,0-.44.2.441.441,0,0,0-.184.368c0,.328.216.5.656.5a.706.706,0,0,0,.36-.088,1.39,1.39,0,0,0,.3-.208,1.218,1.218,0,0,0,.208-.256.447.447,0,0,0,.08-.232v-.4Z" transform="translate(-49.743 -12.259)" fill="#b5b5b6"/>
    <path id="패스_50" data-name="패스 50" d="M245.914,52.566H245.4v-3.96a.673.673,0,0,0-.064-.3.459.459,0,0,0-.208-.2h.544a.272.272,0,0,1,.176.048.185.185,0,0,1,.056.16v4.24Z" transform="translate(-50.607 -11.901)" fill="#b5b5b6"/>
  </g>
</svg>
